<?xml version="1.0" encoding="UTF-8"?>
<svg version="1.1" xmlns="http://www.w3.org/2000/svg" width="512" height="512">
<path d="M0 0 C1.41371384 -0.01469078 1.41371384 -0.01469078 2.85598755 -0.02967834 C42.4089307 -0.35618772 42.4089307 -0.35618772 61.03515625 4.23828125 C61.95425781 4.46322266 62.87335938 4.68816406 63.8203125 4.91992188 C81.4635647 9.37367747 98.00010367 15.66443681 114.03515625 24.23828125 C114.64101563 24.56054688 115.246875 24.8828125 115.87109375 25.21484375 C142.1362275 39.32231734 165.66362493 60.02740101 183.03515625 84.23828125 C183.64617187 85.07480225 183.64617187 85.07480225 184.26953125 85.92822266 C210.32356426 121.9071108 224.24931672 166.24954071 224.28515625 210.48828125 C224.28583099 211.2398349 224.28650574 211.99138855 224.28720093 212.76571655 C224.26917066 225.46256307 223.50327236 237.75437505 221.03515625 250.23828125 C220.86886719 251.09599121 220.70257813 251.95370117 220.53125 252.83740234 C216.71531222 271.87822519 210.31622767 290.24817587 201.06494141 307.33496094 C200.00947343 309.28575002 198.98166325 311.24974644 197.953125 313.21484375 C191.0042435 326.24893971 182.35346942 338.0394472 172.265625 348.83203125 C170.37491817 350.87174299 168.56611154 352.9506086 166.7578125 355.0625 C163.17170413 359.17360279 159.30193662 362.86622656 155.28515625 366.55078125 C147.88462967 373.41746154 140.71348019 380.48430586 133.63183594 387.67895508 C130.22526341 391.12348487 126.81276888 394.48783514 123.1328125 397.640625 C117.99117256 402.06000663 113.29219824 406.91298902 108.53515625 411.73828125 C98.51803157 421.89912364 98.51803157 421.89912364 94.06640625 425.70703125 C88.76458584 430.24761961 83.93209238 435.27143644 79.03515625 440.23828125 C73.53682139 445.81511035 68.04122841 451.31601739 62.0859375 456.41015625 C57.70723827 460.31345385 53.65172028 464.56265604 49.53515625 468.73828125 C44.17191964 474.1784653 38.81710971 479.51685103 33.01367188 484.48681641 C29.18599898 487.87523266 25.62817685 491.54228469 22.03515625 495.17578125 C20.87306641 496.34463867 20.87306641 496.34463867 19.6875 497.53710938 C17.80104868 499.43520545 15.9169938 501.33561274 14.03515625 503.23828125 C10.28204743 501.68062198 7.94097712 499.36028685 5.11328125 496.4765625 C4.64960144 496.00768112 4.18592163 495.53879974 3.70819092 495.05570984 C2.228986 493.55876527 0.75662924 492.05532376 -0.71484375 490.55078125 C-2.64363682 488.58506887 -4.57569341 486.62265253 -6.51171875 484.6640625 C-6.98532837 484.18486359 -7.45893799 483.70566467 -7.94689941 483.21194458 C-11.13861573 480.00654869 -14.45431907 477.02205999 -17.89160156 474.08666992 C-22.95867323 469.56914759 -27.63638772 464.61425432 -32.40136719 459.78125 C-39.00107987 453.06779999 -39.00107987 453.06779999 -45.96484375 446.73828125 C-51.77370983 441.76939377 -57.0386759 436.22049908 -62.40136719 430.78125 C-68.98463946 424.08246726 -68.98463946 424.08246726 -75.93359375 417.76953125 C-81.95644226 412.61760381 -87.41173802 406.84645992 -92.97412109 401.20849609 C-99.77891918 394.27644471 -99.77891918 394.27644471 -106.9609375 387.7421875 C-112.45810326 383.04583993 -117.45318701 377.81854079 -122.52734375 372.67578125 C-128.49504458 366.62768157 -134.4447401 360.70014818 -140.96484375 355.23828125 C-143.46866709 352.71263809 -145.69783365 349.97758512 -147.96484375 347.23828125 C-148.38894531 346.7371582 -148.81304687 346.23603516 -149.25 345.71972656 C-180.90787103 308.21969966 -198.5323123 260.70904659 -198.27734375 211.61328125 C-198.27552094 210.87671295 -198.27369812 210.14014465 -198.27182007 209.3812561 C-198.21976381 196.80822959 -197.40844515 184.59819029 -194.96484375 172.23828125 C-194.79855469 171.38057129 -194.63226563 170.52286133 -194.4609375 169.63916016 C-186.58115157 130.32048756 -167.6000292 93.29494372 -139.96484375 64.23828125 C-139.44325684 63.68414551 -138.92166992 63.13000977 -138.38427734 62.55908203 C-103.20958504 25.40749814 -51.61420934 0.44167634 0 0 Z " fill="#E65758" transform="translate(242.96484375,-0.23828125)"/>
<path d="M0 0 C22.13069579 -0.04666621 44.26138349 -0.0819624 66.39211845 -0.10362434 C76.66719073 -0.11394851 86.94223247 -0.12803056 97.21728516 -0.15087891 C106.17026385 -0.17077795 115.12322044 -0.18370813 124.07622063 -0.18817699 C128.81925257 -0.1907903 133.56222128 -0.19695623 138.305233 -0.21146011 C142.76535875 -0.22498903 147.22539493 -0.2292322 151.68553925 -0.22621536 C153.32628744 -0.22676764 154.9670385 -0.23077293 156.60776901 -0.23841095 C158.84050221 -0.24829899 161.07289313 -0.24599164 163.30563354 -0.24050903 C164.55742842 -0.24235262 165.80922329 -0.24419621 167.09895134 -0.24609566 C170 0 170 0 172 2 C172.06427104 4.51575221 171.99726204 6.87425416 171.8125 9.375 C171.76206543 10.13248535 171.71163086 10.8899707 171.65966797 11.67041016 C171.17678739 18.11627376 170.25219487 24.46104042 169.22998047 30.84008789 C168.07706192 38.14259905 167.23070599 45.46293495 166.4375 52.8125 C166.24824951 54.54282471 166.24824951 54.54282471 166.05517578 56.30810547 C165.38218271 62.46067351 165.38218271 62.46067351 164.72314453 68.61474609 C164.49458625 70.744838 164.25041825 72.87238831 164 75 C163.87625 76.11375 163.7525 77.2275 163.625 78.375 C162.91435739 81.35969897 162.38358188 82.14079964 160 84 C157.6003418 84.62841797 157.6003418 84.62841797 154.69921875 84.9921875 C153.59642578 85.13720703 152.49363281 85.28222656 151.35742188 85.43164062 C150.14634766 85.57794922 148.93527344 85.72425781 147.6875 85.875 C145.73338439 86.12755929 143.77927072 86.38013389 141.82522583 86.63323975 C139.7074237 86.90541539 137.58893449 87.1715904 135.47021484 87.43652344 C130.8591978 88.01479106 126.25165825 88.61816553 121.64453125 89.2265625 C120.46112656 89.38280594 120.46112656 89.38280594 119.2538147 89.54220581 C117.64645556 89.75449314 116.03910493 89.96684493 114.4317627 90.17926025 C111.9830087 90.50224108 109.53402515 90.82342339 107.08496094 91.14404297 C97.53098434 92.39544755 87.98168256 93.67556175 78.4375 95 C76.7512854 95.23348145 76.7512854 95.23348145 75.03100586 95.47167969 C68.36457738 96.39485322 68.36457738 96.39485322 61.69836426 97.31958008 C56.65565822 98.01952837 51.61237498 98.71508929 46.56838989 99.40576172 C44.91329922 99.63312429 43.25840713 99.86193766 41.60372925 100.09228516 C39.28970458 100.41424461 36.97503363 100.7311131 34.66015625 101.046875 C33.97394196 101.14353455 33.28772766 101.24019409 32.58071899 101.33978271 C28.69115374 101.86421169 24.92348516 102.09270169 21 102 C17.22276293 94.08324177 15.61613905 85.93765166 14.10632324 77.37356567 C13.38311894 73.27500397 12.62466539 69.18291062 11.87109375 65.08984375 C11.71798737 64.25323715 11.56488098 63.41663055 11.40713501 62.55467224 C9.80947191 53.86541173 8.04717407 45.21236896 6.25 36.5625 C6.10742767 35.87373779 5.96485535 35.18497559 5.81796265 34.4753418 C5.40576385 32.48463715 4.99219875 30.49422167 4.578125 28.50390625 C4.31837891 27.25496582 4.05863281 26.00602539 3.79101562 24.71923828 C3.25484895 22.198262 2.70088067 19.68101818 2.13085938 17.16748047 C1.85564453 15.94561035 1.58042969 14.72374023 1.296875 13.46484375 C1.04776367 12.38710693 0.79865234 11.30937012 0.54199219 10.19897461 C-0.04325209 6.74471523 -0.0359 3.49738769 0 0 Z " fill="#FEC109" transform="translate(190,118)"/>
<path d="M0 0 C1.08590927 -0.00855011 1.08590927 -0.00855011 2.1937561 -0.01727295 C3.72876518 -0.0267362 5.2637947 -0.03326217 6.79882812 -0.03710938 C9.14749675 -0.0468066 11.49528731 -0.07781229 13.84375 -0.109375 C15.33332812 -0.11590569 16.82291252 -0.1211559 18.3125 -0.125 C19.01571381 -0.1373468 19.71892761 -0.1496936 20.44345093 -0.16241455 C23.1891518 -0.14987691 25.28094912 -0.10124158 27.66918945 1.3293457 C29.26003845 3.9911652 29.65752395 6.45682219 30.18359375 9.51171875 C30.41336914 10.79997559 30.64314453 12.08823242 30.87988281 13.41552734 C30.99706665 14.10233582 31.11425049 14.78914429 31.23498535 15.49676514 C31.86402993 19.17561809 32.53403902 22.84707132 33.19921875 26.51953125 C33.40035782 27.63805481 33.40035782 27.63805481 33.6055603 28.7791748 C34.77566768 35.24424638 36.12323724 41.66243385 37.5390625 48.078125 C40.53909973 61.77399204 43.29274895 75.51702549 46.0390625 89.265625 C46.25961304 90.36783386 46.48016357 91.47004272 46.70739746 92.60565186 C47.34531793 95.79543256 47.98162003 98.98553095 48.6171875 102.17578125 C48.80655884 103.12382126 48.99593018 104.07186127 49.19104004 105.04862976 C49.3719519 105.95949844 49.55286377 106.87036713 49.73925781 107.80883789 C49.91493286 108.6929837 50.09060791 109.57712952 50.27160645 110.48806763 C50.63265817 112.38248191 50.97169718 114.28116651 51.29382324 116.18258667 C51.45821899 117.15285797 51.62261475 118.12312927 51.79199219 119.12280273 C52.00405304 120.42990456 52.00405304 120.42990456 52.22039795 121.76341248 C53.84260928 128.72310304 58.20495194 132.99051396 63.82421875 137.07421875 C67.32977391 139.08834488 70.63062624 139.32960425 74.62246704 139.34788513 C75.59270309 139.35478363 76.56293915 139.36168213 77.56257629 139.36878967 C78.62038803 139.37140305 79.67819977 139.37401642 80.76806641 139.37670898 C81.88709854 139.383396 83.00613068 139.39008301 84.15907288 139.39697266 C86.58883196 139.41102099 89.01860423 139.42291574 91.44838333 139.43292046 C95.2886665 139.44931713 99.12885126 139.47255212 102.96908569 139.49781799 C113.88754408 139.5686486 124.80604082 139.6289036 135.72460938 139.67993164 C142.40119007 139.71121729 149.07764178 139.75289003 155.75413132 139.80012703 C158.30351074 139.81618849 160.85291661 139.82849076 163.40233231 139.83703423 C166.95795692 139.84912601 170.51330878 139.87324767 174.06884766 139.90014648 C175.13070786 139.90073563 176.19256805 139.90132477 177.28660583 139.90193176 C178.73350044 139.91650925 178.73350044 139.91650925 180.20962524 139.93138123 C181.05063593 139.93561316 181.89164661 139.9398451 182.75814247 139.94420528 C184.7890625 140.203125 184.7890625 140.203125 186.7890625 142.203125 C187.0390625 144.703125 187.0390625 144.703125 186.7890625 147.203125 C184.30181287 149.69037463 183.55963314 149.45712933 180.12937927 149.47055054 C178.65545967 149.48334549 178.65545967 149.48334549 177.15176392 149.49639893 C176.06970673 149.49549255 174.98764954 149.49458618 173.87280273 149.49365234 C172.16766762 149.50372818 172.16766762 149.50372818 170.42808533 149.51400757 C166.65123172 149.5330813 162.87455509 149.53691717 159.09765625 149.5390625 C156.47648545 149.54548631 153.85531539 149.55221436 151.23414612 149.55923462 C145.72859544 149.57203871 140.22309285 149.57499857 134.7175293 149.57373047 C128.36913986 149.57253212 122.02109211 149.59356792 115.67278904 149.6252178 C109.55601331 149.6546194 103.43940014 149.66170374 97.32255745 149.66051102 C94.72589795 149.66286814 92.12923582 149.67169782 89.53262138 149.68717575 C85.89182417 149.70683656 82.2518961 149.7009951 78.61108398 149.68896484 C77.54319641 149.70020386 76.47530884 149.71144287 75.37506104 149.72302246 C64.50141828 149.63201775 57.37567002 145.80697481 49.7890625 138.203125 C43.99511298 131.93939579 42.26056125 124.74537557 40.66015625 116.60620117 C40.46946564 115.66848877 40.27877502 114.73077637 40.08230591 113.76464844 C39.45632054 110.67657278 38.84127745 107.58643095 38.2265625 104.49609375 C37.79021142 102.32949853 37.35327127 100.16302188 36.91577148 97.99665833 C36.00004436 93.4541815 35.08935636 88.91073441 34.18261719 84.36645508 C33.0300001 78.59043023 31.8682532 72.81629343 30.70304871 67.04279613 C29.79961151 62.56383867 28.89950954 58.08421626 28.0005188 53.6043644 C27.5738024 51.47835128 27.14647231 49.35246124 26.71847534 47.22670555 C24.17694289 34.5853763 21.8110915 21.93843559 19.7890625 9.203125 C18.4580249 9.22795959 18.4580249 9.22795959 17.10009766 9.2532959 C13.53818045 9.31588506 9.97632703 9.35291958 6.4140625 9.390625 C5.14304688 9.41576172 3.87203125 9.44089844 2.5625 9.46679688 C1.35078125 9.47646484 0.1390625 9.48613281 -1.109375 9.49609375 C-2.23005371 9.5118042 -3.35073242 9.52751465 -4.50537109 9.54370117 C-5.39820801 9.43131104 -6.29104492 9.3189209 -7.2109375 9.203125 C-9.2109375 6.203125 -9.2109375 6.203125 -8.8984375 3.578125 C-7.53556868 -1.12996728 -4.26584688 0.02563311 0 0 Z " fill="#485A63" transform="translate(156.2109375,89.796875)"/>
<path d="M0 0 C7.17535739 4.30521443 11.84948722 8.5894564 14.125 16.875 C15.41925925 24.53066556 13.428991 30.50962384 9.125 36.875 C5.05409412 41.54983148 -0.34443466 44.49430388 -6.51953125 45.16015625 C-14.88488934 45.42336177 -21.09116864 43.34872042 -27.296875 37.66015625 C-32.16678802 32.1513685 -33.62384078 25.81612201 -33.3203125 18.58203125 C-32.14938406 11.4640189 -28.10065629 6.50826872 -22.62109375 2.06640625 C-16.18359293 -2.32607194 -7.32988661 -2.82175589 0 0 Z " fill="#475963" transform="translate(235.875,250.125)"/>
<path d="M0 0 C6.38249134 3.44868253 10.65248818 8.13770987 13.06640625 15.01171875 C14.0942259 21.70057635 13.99345966 28.29540015 10.47265625 34.23046875 C6.21705869 39.62089232 0.92854505 44.50584667 -6.03515625 45.41796875 C-14.51300092 45.64354333 -20.53117694 44.85128573 -26.93359375 39.01171875 C-31.67232631 33.81624088 -33.32666469 28.94757113 -33.62109375 21.94921875 C-33.25687451 14.49486502 -31.46802506 9.25734439 -25.92578125 4.16796875 C-18.34497442 -1.76240412 -9.27903529 -3.12595996 0 0 Z " fill="#465963" transform="translate(329.93359375,249.98828125)"/>
<path d="M0 0 C3.0625 0.1875 3.0625 0.1875 5.0625 2.1875 C5.62196836 4.60419382 6.07471796 6.96150637 6.46484375 9.40625 C6.64846718 10.49537689 6.64846718 10.49537689 6.83580017 11.60650635 C7.23165096 13.96561553 7.61607018 16.32642406 8 18.6875 C8.26708121 20.29731011 8.53482189 21.90701094 8.80322266 23.51660156 C9.32723311 26.66474688 9.84706012 29.81353923 10.36376953 32.96289062 C10.92952517 36.40077516 11.51680365 39.83427145 12.12109375 43.265625 C12.26361572 44.08224609 12.4061377 44.89886719 12.55297852 45.74023438 C12.9063252 47.75935826 13.26166023 49.77813393 13.6171875 51.796875 C14.81533019 60.91957547 14.81533019 60.91957547 12.875 64.1875 C11.0625 65.1875 11.0625 65.1875 8.375 64.875 C7.611875 64.648125 6.84875 64.42125 6.0625 64.1875 C3.99375155 58.70744399 3.07321078 53.1699827 2.1171875 47.41796875 C1.94244904 46.38239334 1.76771057 45.34681793 1.587677 44.27986145 C1.22052476 42.09413418 0.855903 39.90798052 0.49365234 37.72143555 C-0.05910906 34.39540371 -0.62478073 31.07174123 -1.19140625 27.74804688 C-1.54766441 25.61731934 -1.90315815 23.48646382 -2.2578125 21.35546875 C-2.42652863 20.37080124 -2.59524475 19.38613373 -2.76907349 18.37162781 C-3.71790006 12.56332092 -4.19266825 7.07533994 -3.9375 1.1875 C-2.9375 0.1875 -2.9375 0.1875 0 0 Z " fill="#FAF7F1" transform="translate(216.9375,136.8125)"/>
<path d="M0 0 C1.9375 0.75 1.9375 0.75 3.9375 2.75 C4.42407227 5.64819336 4.42407227 5.64819336 4.75390625 9.33984375 C4.81529282 9.99900284 4.87667938 10.65816193 4.93992615 11.33729553 C5.13502305 13.45336336 5.31768591 15.57029637 5.5 17.6875 C5.62613315 19.07885062 5.75307773 20.47012793 5.88085938 21.86132812 C6.12863131 24.57300406 6.37037409 27.28510493 6.60668945 29.99780273 C6.89435799 33.26066456 7.20249985 36.52076779 7.515625 39.78125 C7.89585045 43.97157771 8.10149236 48.10463289 8.125 52.3125 C8.13917969 53.48941406 8.15335938 54.66632813 8.16796875 55.87890625 C7.9375 58.75 7.9375 58.75 5.9375 60.75 C0.36931818 60.18181818 0.36931818 60.18181818 -1.0625 58.75 C-1.35308515 56.22069209 -1.58596284 53.70902985 -1.78125 51.171875 C-1.84405151 50.40828674 -1.90685303 49.64469849 -1.97155762 48.85797119 C-2.17282772 46.40564068 -2.36813118 43.95288646 -2.5625 41.5 C-2.75741087 39.06144849 -2.9536717 36.62303389 -3.15344238 34.18487549 C-3.27775045 32.66586921 -3.39921391 31.14662672 -3.51745605 29.62713623 C-3.81840594 25.93083519 -4.30890213 22.37757474 -5.0625 18.75 C-5.28498952 15.8552765 -5.29280509 12.9650381 -5.3125 10.0625 C-5.333125 9.29099609 -5.35375 8.51949219 -5.375 7.72460938 C-5.390625 5.48828125 -5.390625 5.48828125 -5.0625 1.75 C-2.0625 -0.25 -2.0625 -0.25 0 0 Z " fill="#FAF8F1" transform="translate(246.0625,136.25)"/>
<path d="M0 0 C3.0625 0.1875 3.0625 0.1875 5.0625 2.1875 C5.31646729 4.35070801 5.31646729 4.35070801 5.32128906 7.06445312 C5.32759338 8.07890503 5.33389771 9.09335693 5.34039307 10.1385498 C5.3363446 11.23751587 5.33229614 12.33648193 5.328125 13.46875 C5.33003845 14.59317505 5.3319519 15.7176001 5.33392334 16.87609863 C5.33528617 19.25675683 5.33158294 21.63742243 5.32324219 24.01806641 C5.31254429 27.67236953 5.32313444 31.32618101 5.3359375 34.98046875 C5.33461592 37.28906359 5.33205357 39.59765812 5.328125 41.90625 C5.33217346 43.00521606 5.33622192 44.10418213 5.34039307 45.2364502 C5.33408875 46.2509021 5.32778442 47.265354 5.32128906 48.31054688 C5.31890228 49.65385071 5.31890228 49.65385071 5.31646729 51.02429199 C5.0625 53.1875 5.0625 53.1875 3.0625 55.1875 C0 55.375 0 55.375 -2.9375 55.1875 C-4.60466684 53.52033316 -4.06494882 51.5144386 -4.06689453 49.22460938 C-4.07004669 48.16681274 -4.07319885 47.10901611 -4.07644653 46.01916504 C-4.07341019 44.29264709 -4.07341019 44.29264709 -4.0703125 42.53125 C-4.07126923 41.35864624 -4.07222595 40.18604248 -4.07321167 38.97790527 C-4.0738937 36.49291938 -4.07203784 34.00793171 -4.06787109 31.52294922 C-4.06252319 27.70406113 -4.06781536 23.88529065 -4.07421875 20.06640625 C-4.07355797 17.65885391 -4.07227682 15.25130163 -4.0703125 12.84375 C-4.07233673 11.69273804 -4.07436096 10.54172607 -4.07644653 9.35583496 C-4.07329437 8.29803833 -4.07014221 7.2402417 -4.06689453 6.15039062 C-4.06609894 5.21408813 -4.06530334 4.27778564 -4.06448364 3.31311035 C-3.86535718 -0.02011631 -3.39616385 0.21677642 0 0 Z " fill="#FAF8F4" transform="translate(272.9375,136.8125)"/>
<path d="M0 0 C4.75 0.75 4.75 0.75 7 3 C7.02270508 5.69091797 7.02270508 5.69091797 6.70703125 9.1171875 C6.59697754 10.37885742 6.48692383 11.64052734 6.37353516 12.94042969 C6.31135803 13.60683472 6.24918091 14.27323975 6.18511963 14.95983887 C6.0028446 16.96865028 5.84367375 18.97785731 5.69287109 20.98925781 C5.44000239 24.35547963 5.15870734 27.71837936 4.86254883 31.08105469 C4.74436511 32.46101856 4.63320459 33.84159937 4.52856445 35.22265625 C4.37337004 37.25705773 4.19500104 39.28827312 4.01171875 41.3203125 C3.91334717 42.50898926 3.81497559 43.69766602 3.71362305 44.92236328 C2.89063997 48.47163619 1.87442522 49.81290048 -1 52 C-4.01811422 51.82246387 -4.83735215 51.16264785 -7 49 C-7.69052203 43.22018892 -6.84843908 37.15185151 -6.23046875 31.38671875 C-6.10796501 30.22146416 -6.10796501 30.22146416 -5.98298645 29.03266907 C-5.80991413 27.40813192 -5.63416331 25.78387802 -5.45581055 24.15991211 C-5.1864068 21.67742642 -4.9358295 19.19346147 -4.68554688 16.70898438 C-4.51417172 15.12227111 -4.34168507 13.53567741 -4.16796875 11.94921875 C-4.09595749 11.21064133 -4.02394623 10.4720639 -3.94975281 9.71110535 C-3.48194838 5.66086119 -2.84139676 2.99306755 0 0 Z " fill="#FAF7EE" transform="translate(299,136)"/>
<path d="M0 0 C1.875 0.875 1.875 0.875 3.875 2.875 C3.60504546 10.70368176 1.40047214 18.1671433 -0.57226562 25.70507812 C-1.13570093 27.91700967 -1.6589092 30.1352327 -2.171875 32.359375 C-2.34227295 33.08439209 -2.5126709 33.80940918 -2.68823242 34.55639648 C-3.01408646 35.94729129 -3.33231846 37.34000016 -3.6418457 38.73461914 C-5.11520376 44.90820245 -5.11520376 44.90820245 -8.125 46.875 C-11.3125 46.5625 -11.3125 46.5625 -14.125 45.875 C-15.2827765 40.95820889 -14.82569407 37.5973852 -13.5 32.75 C-13.12122776 31.34666892 -12.74368509 29.94300555 -12.3671875 28.5390625 C-12.06312988 27.41999512 -12.06312988 27.41999512 -11.75292969 26.27832031 C-11.08010071 23.70315372 -10.47585134 21.11809881 -9.8828125 18.5234375 C-9.67350098 17.62641113 -9.46418945 16.72938477 -9.24853516 15.80517578 C-8.83974234 14.04803894 -8.44062177 12.28861759 -8.05224609 10.52685547 C-5.46722003 -0.32160118 -5.46722003 -0.32160118 0 0 Z " fill="#FAF7EE" transform="translate(330.125,136.125)"/>
</svg>
