<?xml version="1.0" encoding="UTF-8"?>
<svg version="1.1" xmlns="http://www.w3.org/2000/svg" width="512" height="512">
<path d="M0 0 C1.41371384 -0.01469078 1.41371384 -0.01469078 2.85598755 -0.02967834 C42.4089307 -0.35618772 42.4089307 -0.35618772 61.03515625 4.23828125 C61.95425781 4.46322266 62.87335938 4.68816406 63.8203125 4.91992188 C81.4635647 9.37367747 98.00010367 15.66443681 114.03515625 24.23828125 C114.64101563 24.56054688 115.246875 24.8828125 115.87109375 25.21484375 C142.1362275 39.32231734 165.66362493 60.02740101 183.03515625 84.23828125 C183.64617187 85.07480225 183.64617187 85.07480225 184.26953125 85.92822266 C210.32356426 121.9071108 224.24931672 166.24954071 224.28515625 210.48828125 C224.28583099 211.2398349 224.28650574 211.99138855 224.28720093 212.76571655 C224.26917066 225.46256307 223.50327236 237.75437505 221.03515625 250.23828125 C220.86886719 251.09599121 220.70257813 251.95370117 220.53125 252.83740234 C216.71531222 271.87822519 210.31622767 290.24817587 201.06494141 307.33496094 C200.00947343 309.28575002 198.98166325 311.24974644 197.953125 313.21484375 C191.0042435 326.24893971 182.35346942 338.0394472 172.265625 348.83203125 C170.37491817 350.87174299 168.56611154 352.9506086 166.7578125 355.0625 C163.17170413 359.17360279 159.30193662 362.86622656 155.28515625 366.55078125 C147.88462967 373.41746154 140.71348019 380.48430586 133.63183594 387.67895508 C130.22526341 391.12348487 126.81276888 394.48783514 123.1328125 397.640625 C117.99117256 402.06000663 113.29219824 406.91298902 108.53515625 411.73828125 C98.51803157 421.89912364 98.51803157 421.89912364 94.06640625 425.70703125 C88.76458584 430.24761961 83.93209238 435.27143644 79.03515625 440.23828125 C73.53682139 445.81511035 68.04122841 451.31601739 62.0859375 456.41015625 C57.70723827 460.31345385 53.65172028 464.56265604 49.53515625 468.73828125 C44.17191964 474.1784653 38.81710971 479.51685103 33.01367188 484.48681641 C29.18599898 487.87523266 25.62817685 491.54228469 22.03515625 495.17578125 C20.87306641 496.34463867 20.87306641 496.34463867 19.6875 497.53710938 C17.80104868 499.43520545 15.9169938 501.33561274 14.03515625 503.23828125 C10.28204743 501.68062198 7.94097712 499.36028685 5.11328125 496.4765625 C4.64960144 496.00768112 4.18592163 495.53879974 3.70819092 495.05570984 C2.228986 493.55876527 0.75662924 492.05532376 -0.71484375 490.55078125 C-2.64363682 488.58506887 -4.57569341 486.62265253 -6.51171875 484.6640625 C-6.98532837 484.18486359 -7.45893799 483.70566467 -7.94689941 483.21194458 C-11.13861573 480.00654869 -14.45431907 477.02205999 -17.89160156 474.08666992 C-22.95867323 469.56914759 -27.63638772 464.61425432 -32.40136719 459.78125 C-39.00107987 453.06779999 -39.00107987 453.06779999 -45.96484375 446.73828125 C-51.77370983 441.76939377 -57.0386759 436.22049908 -62.40136719 430.78125 C-68.98463946 424.08246726 -68.98463946 424.08246726 -75.93359375 417.76953125 C-81.95644226 412.61760381 -87.41173802 406.84645992 -92.97412109 401.20849609 C-99.77891918 394.27644471 -99.77891918 394.27644471 -106.9609375 387.7421875 C-112.45810326 383.04583993 -117.45318701 377.81854079 -122.52734375 372.67578125 C-128.49504458 366.62768157 -134.4447401 360.70014818 -140.96484375 355.23828125 C-143.46866709 352.71263809 -145.69783365 349.97758512 -147.96484375 347.23828125 C-148.38894531 346.7371582 -148.81304687 346.23603516 -149.25 345.71972656 C-180.90787103 308.21969966 -198.5323123 260.70904659 -198.27734375 211.61328125 C-198.27552094 210.87671295 -198.27369812 210.14014465 -198.27182007 209.3812561 C-198.21976381 196.80822959 -197.40844515 184.59819029 -194.96484375 172.23828125 C-194.79855469 171.38057129 -194.63226563 170.52286133 -194.4609375 169.63916016 C-186.58115157 130.32048756 -167.6000292 93.29494372 -139.96484375 64.23828125 C-139.44325684 63.68414551 -138.92166992 63.13000977 -138.38427734 62.55908203 C-103.20958504 25.40749814 -51.61420934 0.44167634 0 0 Z " fill="#E65658" transform="translate(242.96484375,-0.23828125)"/>
<path d="M0 0 C2.97366283 1.37669575 4.58401152 2.69382918 7 5 C7 5.66 7 6.32 7 7 C7.66 7 8.32 7 9 7 C10.48046875 8.50390625 10.48046875 8.50390625 12.1875 10.5625 C14.53627765 13.34010012 16.92152706 15.93737895 19.5625 18.4375 C24.59868757 23.46229348 29.3421366 28.51107525 29.4375 35.9375 C29.29519123 38.38262348 29.09982232 39.80035536 28 42 C34.37551843 42.62556972 40.71456967 43.06151921 47.12109375 43.17578125 C48.92416992 43.21155273 48.92416992 43.21155273 50.76367188 43.24804688 C53.24005046 43.29149211 55.71667507 43.32247796 58.19335938 43.34179688 C59.98290039 43.38336914 59.98290039 43.38336914 61.80859375 43.42578125 C62.87907959 43.44036377 63.94956543 43.45494629 65.05249023 43.4699707 C68.67960573 44.12220857 70.36702149 45.47161967 73 48 C74.73631636 51.47263273 74.60190402 55.21193013 74 59 C71.81840855 61.75569447 70.12822506 63.43588747 67 65 C64.51900266 65.08649451 62.06655072 65.11565054 59.5859375 65.09765625 C58.85629791 65.0962413 58.12665833 65.09482635 57.37490845 65.09336853 C55.04156415 65.08776531 52.70831536 65.07521235 50.375 65.0625 C48.79427222 65.05748541 47.21354293 65.05292243 45.6328125 65.04882812 C41.75517146 65.03779484 37.87760193 65.02052811 34 65 C34.21205078 65.62044189 34.42410156 66.24088379 34.64257812 66.88012695 C35.59975659 69.68934057 36.54995075 72.50086777 37.5 75.3125 C37.83386719 76.28896484 38.16773438 77.26542969 38.51171875 78.27148438 C38.98544922 79.67817383 38.98544922 79.67817383 39.46875 81.11328125 C39.76201172 81.97735596 40.05527344 82.84143066 40.35742188 83.73168945 C41 86 41 86 41 89 C40.13721436 89.05534912 39.27442871 89.11069824 38.38549805 89.16772461 C35.18166688 89.37515449 31.97809609 89.58614965 28.7746582 89.79956055 C27.38868421 89.89115902 26.00261575 89.9813397 24.61645508 90.07006836 C22.62296625 90.1979202 20.62983503 90.3313099 18.63671875 90.46484375 C17.43748779 90.543396 16.23825684 90.62194824 15.00268555 90.70288086 C11.95260008 90.89287007 11.95260008 90.89287007 9 92 C9.763125 92.391875 10.52625 92.78375 11.3125 93.1875 C14.2725656 95.18382331 15.45019232 96.81881581 17 100 C17 100.66 17 101.32 17 102 C24.92 101.505 24.92 101.505 33 101 C31.1385107 104.72297861 29.74413327 106.44451274 26.8125 109.25 C22.01521543 113.93913322 17.3008555 118.73186943 13.4296875 124.23046875 C12.95789063 124.81441406 12.48609375 125.39835937 12 126 C11.34 126 10.68 126 10 126 C9.80313599 127.09985229 9.80313599 127.09985229 9.60229492 128.22192383 C9.04817956 130.77777249 8.32144898 133.02191342 7.36328125 135.44921875 C7.03626221 136.28888184 6.70924316 137.12854492 6.37231445 137.99365234 C6.02257568 138.88262207 5.67283691 139.7715918 5.3125 140.6875 C2.31013347 148.39364139 -0.47938209 156.11858449 -2.83276367 164.04956055 C-4.6000482 169.69114842 -7.06965907 174.94876135 -12.03125 178.421875 C-14.27090872 179.07955256 -16.16560606 179.265989 -18.5 179.25 C-19.2528125 179.25515625 -20.005625 179.2603125 -20.78125 179.265625 C-23.2296721 178.97250404 -24.87304054 178.21816769 -27 177 C-27.020625 178.19625 -27.04125 179.3925 -27.0625 180.625 C-28.31648049 191.3855083 -34.6045439 200.74908603 -42.390625 207.9453125 C-46.33574043 211.05179561 -50.34907629 213.15165229 -55 215 C-55.70511719 215.31710937 -56.41023438 215.63421875 -57.13671875 215.9609375 C-66.94643998 219.91383811 -78.37283596 219.06043653 -88 215 C-100.0269046 209.60016528 -109.0972522 200.56937095 -114.09765625 188.30859375 C-117.75332637 176.62745249 -116.71822982 165.20761053 -112 154 C-109.0954603 148.62063333 -105.58944824 144.05579146 -101 140 C-100.37609375 139.43410156 -99.7521875 138.86820313 -99.109375 138.28515625 C-92.48226632 132.64734617 -84.61495309 128.80383575 -75.75 128.75 C-74.8425 128.8325 -73.935 128.915 -73 129 C-74.38030447 133.5499244 -76.2206373 137.53749411 -78.4765625 141.71875 C-79.15409767 142.99324949 -79.83116711 144.26799665 -80.5078125 145.54296875 C-81.56702935 147.52715631 -82.62992618 149.50909465 -83.70117188 151.48681641 C-84.7416062 153.41257443 -85.76627092 155.34607773 -86.7890625 157.28125 C-87.40475098 158.42658203 -88.02043945 159.57191406 -88.65478516 160.75195312 C-90.05199186 164.12553533 -90.28072015 166.39093603 -90 170 C-88.88625 170.350625 -87.7725 170.70125 -86.625 171.0625 C-84.671875 171.8828125 -84.671875 171.8828125 -83 173 C-81.875 176.4375 -81.875 176.4375 -81 180 C-78.74613588 182.7468969 -77.13170607 183.80269598 -73.625 184.4140625 C-69.12640492 184.66844734 -66.74238801 184.52585817 -63 181.875 C-60.95860368 178.9404928 -60.05156606 176.38942273 -59 173 C-58.01257813 172.95101562 -57.02515625 172.90203125 -56.0078125 172.8515625 C-54.08582031 172.73941406 -54.08582031 172.73941406 -52.125 172.625 C-50.21074219 172.52058594 -50.21074219 172.52058594 -48.2578125 172.4140625 C-44.91938301 172.32758894 -44.91938301 172.32758894 -43 170 C-43 167.36 -43 164.72 -43 162 C-53.89 161.67 -64.78 161.34 -76 161 C-71.16701717 151.23540203 -66.24416804 141.51872199 -61.25686646 131.8321228 C-60.58917578 130.53428173 -59.92271893 129.23580511 -59.25753784 127.93667603 C-58.30548905 126.07830796 -57.34864962 124.22248057 -56.390625 122.3671875 C-55.5557959 120.74466064 -55.5557959 120.74466064 -54.70410156 119.08935547 C-52.95422036 115.91700636 -51.05031849 112.98365571 -49 110 C-46.27877152 112.36712923 -45.17431884 114.58010315 -43.9140625 117.9375 C-43.35332031 119.40509766 -43.35332031 119.40509766 -42.78125 120.90234375 C-42.3996875 121.92457031 -42.018125 122.94679688 -41.625 124 C-39.00255843 130.9539916 -36.2722633 137.79124563 -33.12646484 144.52734375 C-30.94739459 149.31053048 -29.75219832 152.6722638 -30 158 C-29.34 158 -28.68 158 -28 158 C-27.81824219 157.11248047 -27.81824219 157.11248047 -27.6328125 156.20703125 C-26.21160911 149.50551065 -26.21160911 149.50551065 -24.875 146.3125 C-22.78664825 140.79328465 -24.37442118 136.38854017 -26.625 131.17578125 C-26.89135254 130.54770065 -27.15770508 129.91962006 -27.43212891 129.27250671 C-28.27802634 127.28135546 -29.13795159 125.29670595 -30 123.3125 C-30.86012114 121.31685539 -31.71706046 119.31999066 -32.56787109 117.32035828 C-33.33780184 115.51309664 -34.11786728 113.7101626 -34.8984375 111.9074707 C-36 109 -36 109 -36 106 C-34.741875 106.04125 -33.48375 106.0825 -32.1875 106.125 C-22.52814968 106.03215807 -16.00243692 105.04404067 -8.87109375 98.13671875 C-5.79152666 94.85298146 -2.81523739 91.51367415 0 88 C-7.80056093 79.90793829 -18.12317112 77.3390367 -28.5 74 C-30.06281261 73.48793225 -31.62531516 72.97491721 -33.1875 72.4609375 C-39.31567056 70.45219526 -45.4496491 68.46692123 -51.6171875 66.58203125 C-52.35022095 66.35717041 -53.08325439 66.13230957 -53.83850098 65.90063477 C-55.22048247 65.47854082 -56.60380179 65.06079318 -57.98864746 64.64819336 C-61.05439427 63.71298939 -63.30425135 62.79716577 -66 61 C-65.84878941 54.51810599 -62.25468389 51.51673745 -57.9375 47.1875 C-56.4723445 45.67608339 -55.00750983 44.16435572 -53.54296875 42.65234375 C-52.4125415 41.49774658 -52.4125415 41.49774658 -51.25927734 40.31982422 C-47.70886438 36.67426295 -44.23103877 32.96164386 -40.75 29.25 C-40.08597168 28.54584961 -39.42194336 27.84169922 -38.73779297 27.11621094 C-35.14799632 23.30731872 -31.59313054 19.47077002 -28.07519531 15.59545898 C-25.74271379 13.03898997 -23.37103836 10.52075151 -21 8 C-20.23558594 7.14921875 -19.47117187 6.2984375 -18.68359375 5.421875 C-13.03693854 -0.35609777 -7.96962209 -1.71092995 0 0 Z " fill="#FDB49D" transform="translate(253,88)"/>
<path d="M0 0 C5.28988675 0.60135846 10.00406617 1.82202445 15.03125 3.546875 C15.78482788 3.79995422 16.53840576 4.05303345 17.31481934 4.31378174 C19.71183468 5.12019001 22.10593629 5.934876 24.5 6.75 C26.07533119 7.28181209 27.65085076 7.8130665 29.2265625 8.34375 C31.56123593 9.13015177 33.89528989 9.91814362 36.22740173 10.71211243 C39.90586085 11.96395277 43.58780944 13.19575537 47.29125977 14.37182617 C47.96648682 14.5886908 48.64171387 14.80555542 49.33740234 15.0289917 C51.15276537 15.60997385 52.97093483 16.18216659 54.78930664 16.75366211 C59.77491659 18.68899317 63.87825266 21.63471453 68 25 C66.04246492 27.38078591 64.04503603 29.69490159 62 32 C61.17628906 32.95003906 60.35257812 33.90007812 59.50390625 34.87890625 C51.65148296 43.58460731 51.65148296 43.58460731 45.9375 44.1875 C44.29140087 44.132443 42.64557593 44.06894532 41 44 C39.23050606 43.98786355 37.46093629 43.98386111 35.69140625 43.98828125 C34.80783447 43.98997314 33.9242627 43.99166504 33.01391602 43.9934082 C32.34932373 43.9955835 31.68473145 43.99775879 31 44 C32.60272014 48.02141141 34.20743491 52.04202402 35.8125 56.0625 C36.49022461 57.7630957 36.49022461 57.7630957 37.18164062 59.49804688 C37.62314453 60.60341797 38.06464844 61.70878906 38.51953125 62.84765625 C38.94693604 63.92007568 39.37434082 64.99249512 39.81469727 66.09741211 C40.76788134 68.43158418 41.7735418 70.71891222 42.828125 73.0078125 C45.6649474 80.25116569 42.7851265 87.35113087 39.83984375 94.1640625 C39.56269531 94.76992187 39.28554687 95.37578125 39 96 C38.34 96 37.68 96 37 96 C36.773125 94.948125 36.54625 93.89625 36.3125 92.8125 C34.06098627 83.83815652 30.22684048 75.35248351 26.3359375 66.98828125 C23.69250238 61.07533428 21.36715695 55.02770893 19 49 C15.22110895 53.26842921 12.94357939 57.84766173 10.5 62.9375 C5.3366219 73.49325711 -0.25431893 83.79099781 -5.94360352 94.07080078 C-6.65359914 95.36740013 -7.33890036 96.67780072 -8 98 C-7.10692139 98.01458252 -6.21384277 98.02916504 -5.29370117 98.04418945 C-1.97782722 98.10527077 1.33721899 98.17942478 4.65258789 98.26245117 C6.08704628 98.29569001 7.52163513 98.32372535 8.95629883 98.34643555 C11.01960807 98.38000271 13.08172303 98.43231413 15.14453125 98.48828125 C16.38565674 98.51446533 17.62678223 98.54064941 18.90551758 98.56762695 C22 99 22 99 23.9050293 100.34448242 C25.62707133 102.94808711 25.37898059 104.96815531 25 108 C23.92578125 109.67578125 23.92578125 109.67578125 22 111 C18.64453125 111.29296875 18.64453125 111.29296875 14.8125 111.1875 C13.54019531 111.16042969 12.26789063 111.13335937 10.95703125 111.10546875 C9.49330078 111.05326172 9.49330078 111.05326172 8 111 C7.81244141 112.39798828 7.81244141 112.39798828 7.62109375 113.82421875 C6.89104592 117.55710481 5.58373067 119.2596796 3 122 C-0.73660137 123.86830069 -4.9310391 123.54294417 -9 123 C-11.89028599 121.689972 -12.8469335 120.52985314 -15 118 C-15.495 116.1746875 -15.495 116.1746875 -16 114.3125 C-16.495 112.6728125 -16.495 112.6728125 -17 111 C-19.97187717 109.53641935 -19.97187717 109.53641935 -23 109 C-24 108 -24 108 -24.30859375 105.45263672 C-23.90193397 100.90280869 -22.1980905 97.74237994 -20.0625 93.7578125 C-19.66297119 92.98944061 -19.26344238 92.22106873 -18.85180664 91.42941284 C-17.5792507 88.9884525 -16.28996766 86.55679585 -15 84.125 C-14.13169185 82.46673215 -13.26449164 80.80788365 -12.3984375 79.1484375 C-10.27839931 75.09212053 -8.14332007 71.04405989 -6 67 C-8.24326626 67.45697559 -10.48520445 67.92047385 -12.7265625 68.38671875 C-13.97518066 68.64412842 -15.22379883 68.90153809 -16.51025391 69.16674805 C-20.81610061 70.19486158 -24.28711804 71.62990323 -28 74 C-28.66386719 74.40863281 -29.32773438 74.81726563 -30.01171875 75.23828125 C-39.23018376 81.4717195 -43.89534837 90.55101117 -47 101 C-47.19335938 101.64066406 -47.38671875 102.28132813 -47.5859375 102.94140625 C-49.82223424 114.05959855 -47.58371758 125.05817823 -41.875 134.6875 C-34.92322852 144.85446578 -25.55361886 151.55535342 -13.51171875 154.63671875 C-1.05347486 156.43861095 10.90516393 154.57070569 21.375 147.25 C31.88485103 138.40552151 37.56743025 128.48970495 40 115 C42.31 115.66 44.62 116.32 47 117 C45.68347493 129.37533568 40.31768225 141.50842153 31 150 C17.81656714 159.89217138 5.58936948 164.23830602 -11 163 C-25.1687058 160.88181408 -37.20101545 153.67456649 -46.0390625 142.3984375 C-54.18012999 130.37737189 -57.80967296 116.29976897 -55.50390625 101.90234375 C-52.16959901 87.30297588 -44.47411358 76.48862442 -32.47265625 67.53515625 C-24.83008815 62.7902443 -16.77102478 59.8553117 -7.8125 59.9375 C-6.54019531 59.94652344 -5.26789063 59.95554688 -3.95703125 59.96484375 C-2.49330078 59.98224609 -2.49330078 59.98224609 -1 60 C-0.76539063 59.19304687 -0.53078125 58.38609375 -0.2890625 57.5546875 C1.30000035 53.1727263 3.40649114 49.21537571 5.625 45.125 C6.04523438 44.34125 6.46546875 43.5575 6.8984375 42.75 C7.9281022 40.83107943 8.96347567 38.91522397 10 37 C8.90300781 36.99742187 7.80601562 36.99484375 6.67578125 36.9921875 C5.22131393 36.95465286 3.76688762 36.91550514 2.3125 36.875 C1.2306543 36.87886719 1.2306543 36.87886719 0.12695312 36.8828125 C-2.95187065 36.77034405 -5.15294363 36.67423998 -7.61547852 34.71411133 C-9.81875374 32.1752561 -10.95307762 30.25546629 -11.5625 26.9375 C-10.87020639 23.32218892 -9.54408967 21.61891584 -7 19 C-4.16730334 17.58365167 -1.52533562 17.6536995 1.625 17.4375 C3.40777344 17.31181641 3.40777344 17.31181641 5.2265625 17.18359375 C6.14179688 17.12300781 7.05703125 17.06242187 8 17 C7.50628906 16.44570312 7.01257813 15.89140625 6.50390625 15.3203125 C5.86324219 14.59585938 5.22257812 13.87140625 4.5625 13.125 C3.92441406 12.40570313 3.28632813 11.68640625 2.62890625 10.9453125 C-0.40598514 7.32090983 -0.08608542 4.64861279 0 0 Z " fill="#588699" transform="translate(186,150)"/>
<path d="M0 0 C2.72122848 2.36712923 3.82568116 4.58010315 5.0859375 7.9375 C5.45976562 8.91589844 5.83359375 9.89429688 6.21875 10.90234375 C6.6003125 11.92457031 6.981875 12.94679687 7.375 14 C9.99744157 20.9539916 12.7277367 27.79124563 15.87353516 34.52734375 C18.58974657 40.48958674 21.17604026 46.47187922 19 53 C18.56773554 57.49555042 18.6241226 59.44155357 21.1875 63.25 C22.65292854 65.59155663 23.0251854 66.67567367 22.80859375 69.46484375 C19.52263977 82.55232902 13.03128413 94.24653262 1.44921875 101.625 C-0.99485598 102.90215258 -3.43833761 103.98195647 -6 105 C-6.70511719 105.31710937 -7.41023438 105.63421875 -8.13671875 105.9609375 C-17.94643998 109.91383811 -29.37283596 109.06043653 -39 105 C-51.0269046 99.60016528 -60.0972522 90.56937095 -65.09765625 78.30859375 C-68.75332637 66.62745249 -67.71822982 55.20761053 -63 44 C-60.0954603 38.62063333 -56.58944824 34.05579146 -52 30 C-51.37609375 29.43410156 -50.7521875 28.86820313 -50.109375 28.28515625 C-43.48226632 22.64734617 -35.61495309 18.80383575 -26.75 18.75 C-25.8425 18.8325 -24.935 18.915 -24 19 C-25.38030447 23.5499244 -27.2206373 27.53749411 -29.4765625 31.71875 C-30.15409767 32.99324949 -30.83116711 34.26799665 -31.5078125 35.54296875 C-32.56702935 37.52715631 -33.62992618 39.50909465 -34.70117188 41.48681641 C-35.7416062 43.41257443 -36.76627092 45.34607773 -37.7890625 47.28125 C-38.40475098 48.42658203 -39.02043945 49.57191406 -39.65478516 50.75195312 C-41.05199186 54.12553533 -41.28072015 56.39093603 -41 60 C-39.329375 60.5259375 -39.329375 60.5259375 -37.625 61.0625 C-35.671875 61.8828125 -35.671875 61.8828125 -34 63 C-32.875 66.4375 -32.875 66.4375 -32 70 C-29.74613588 72.7468969 -28.13170607 73.80269598 -24.625 74.4140625 C-20.12640492 74.66844734 -17.74238801 74.52585817 -14 71.875 C-11.95860368 68.9404928 -11.05156606 66.38942273 -10 63 C-9.01257813 62.95101562 -8.02515625 62.90203125 -7.0078125 62.8515625 C-5.72648437 62.77679688 -4.44515625 62.70203125 -3.125 62.625 C-1.21074219 62.52058594 -1.21074219 62.52058594 0.7421875 62.4140625 C4.08061699 62.32758894 4.08061699 62.32758894 6 60 C6 57.36 6 54.72 6 52 C-4.89 51.67 -15.78 51.34 -27 51 C-22.16701717 41.23540203 -17.24416804 31.51872199 -12.25686646 21.8321228 C-11.58917578 20.53428173 -10.92271893 19.23580511 -10.25753784 17.93667603 C-9.30548905 16.07830796 -8.34864962 14.22248057 -7.390625 12.3671875 C-6.83407227 11.28550293 -6.27751953 10.20381836 -5.70410156 9.08935547 C-3.95422036 5.91700636 -2.05031849 2.98365571 0 0 Z " fill="#E45558" transform="translate(204,198)"/>
<path d="M0 0 C8.58 0 17.16 0 26 0 C22.83759418 2.10827055 21.49342531 2.33817465 17.8125 2.625 C16.46091797 2.73714844 16.46091797 2.73714844 15.08203125 2.8515625 C14.39496094 2.90054688 13.70789063 2.94953125 13 3 C13.4031543 4.17916992 13.80630859 5.35833984 14.22167969 6.57324219 C15.73548501 11.00130806 17.24868707 15.42957989 18.76171875 19.85791016 C19.41325014 21.76454081 20.06493919 23.6711176 20.71679688 25.57763672 C22.55071602 30.94156894 24.38183169 36.3064389 26.20776367 41.6730957 C26.70632879 43.13744828 27.20572129 44.60151968 27.70629883 46.06518555 C28.2914512 47.7768512 28.87249862 49.48991876 29.453125 51.203125 C29.75895508 52.10192383 30.06478516 53.00072266 30.37988281 53.92675781 C31 56 31 56 31 58 C31.99 57.67 32.98 57.34 34 57 C50.34446344 55.54336374 63.71945287 57.9099747 77 68 C87.93676426 77.28072424 95.06370855 89.13901913 96.3125 103.625 C96.42771973 110.30774422 96.03383261 116.61797352 94 123 C93.63261719 124.17949219 93.63261719 124.17949219 93.2578125 125.3828125 C88.28569843 139.41913452 78.4552338 149.29632725 65.27709961 155.7121582 C52.4765977 161.61232277 38.25455652 161.62976059 25 157 C11.38282336 151.1450576 1.85138488 141.08720959 -3.875 127.5625 C-8.44009212 115.96837532 -9.28244807 101.63093997 -4.9375 89.75 C0.05202791 79.04620828 7.86061897 67.91669232 19 63 C17.55613874 55.78069368 15.42211826 48.94889267 13 42 C10.8778477 41.78202107 10.8778477 41.78202107 9.30078125 43.46875 C5.4138392 47.43969277 1.65671109 51.47311507 -1.96875 55.68359375 C-4.51341758 58.5854935 -7.12752917 61.41847959 -9.75 64.25 C-10.26224121 64.80341064 -10.77448242 65.35682129 -11.30224609 65.92700195 C-12.34815634 67.05661765 -13.39421831 68.18609288 -14.44042969 69.31542969 C-23.88520304 79.51066175 -23.88520304 79.51066175 -33 90 C-34.29651382 86.11045853 -33.40133749 84.79350846 -31.91015625 81.01953125 C-31.45576172 79.85615234 -31.00136719 78.69277344 -30.53320312 77.49414062 C-30.04787109 76.27919922 -29.56253906 75.06425781 -29.0625 73.8125 C-28.58103516 72.58595703 -28.09957031 71.35941406 -27.60351562 70.09570312 C-26.41065708 67.06040959 -25.20918758 64.0288173 -24 61 C-23.34 61 -22.68 61 -22 61 C-21.74404053 60.42185547 -21.48808105 59.84371094 -21.22436523 59.24804688 C-19.8787478 56.77736983 -18.35927108 55.05658446 -16.41015625 53.03125 C-15.70826172 52.29519531 -15.00636719 51.55914062 -14.28320312 50.80078125 C-13.55037109 50.04152344 -12.81753906 49.28226563 -12.0625 48.5 C-10.61404269 46.99135038 -9.16736322 45.48099139 -7.72265625 43.96875 C-6.75984741 42.97004883 -6.75984741 42.97004883 -5.77758789 41.95117188 C-4.04489806 40.04928241 -2.50708661 38.08338538 -1 36 C-2.4540625 36.2475 -2.4540625 36.2475 -3.9375 36.5 C-13.05141843 37.72508883 -13.05141843 37.72508883 -17 37 C-19.10361696 34.5776532 -20 33.21754366 -20 30 C-20.804375 29.71125 -21.60875 29.4225 -22.4375 29.125 C-25 28 -25 28 -26 26 C-14.91331161 23.97437341 -4.23136083 23.78447282 7 24 C6.74605469 23.32195312 6.49210937 22.64390625 6.23046875 21.9453125 C0 5.09737828 0 5.09737828 0 0 Z M34 65 C35.4641528 71.86100587 37.12131512 78.63288933 39.0625 85.375 C39.43665039 86.85033203 39.43665039 86.85033203 39.81835938 88.35546875 C41.23837426 93.67665257 41.23837426 93.67665257 45.14794922 97.18847656 C46.7294588 97.66449909 48.32716402 98.09022934 49.93701172 98.45922852 C52 99 52 99 54.03515625 100.87890625 C55.83310073 104.83147245 55.6374 108.76437416 55 113 C53.20353146 115.93423195 52.0558929 117.47205355 49 119 C44.11147238 119.52778794 40.2334565 119.73000486 35.9375 117.1875 C32.73283967 113.56933511 32.99730983 110.87430717 33.25 106.26953125 C33.3136741 98.07944953 30.82418393 91.22465932 28 83.6875 C27.51633919 82.35029146 27.03455669 81.012402 26.5546875 79.67382812 C25.391263 76.44110797 24.20296415 73.21824903 23 70 C14.12018258 73.41180106 8.60374307 79.82767503 4 88 C3.58492188 88.6909375 3.16984375 89.381875 2.7421875 90.09375 C-0.20444556 95.94580447 -0.38242 101.69528836 -0.4375 108.125 C-0.44765137 108.97231689 -0.45780273 109.81963379 -0.46826172 110.69262695 C-0.30972325 122.13754123 5.17870866 132.71678378 12.859375 141.08203125 C22.89371865 150.07265668 34.44975449 153.61401962 47.67578125 153.28515625 C52.20132869 152.8969483 55.88091983 151.86821669 60 150 C60.82113281 149.64808594 61.64226562 149.29617188 62.48828125 148.93359375 C73.45603144 143.89075869 81.10670588 136.21006341 85.84936523 124.99072266 C87.94583056 119.31925189 88.51126332 114.14513264 88.4375 108.125 C88.42505249 106.809552 88.42505249 106.809552 88.41235352 105.4675293 C88.11899879 94.19790553 84.61694033 86.28723108 77 78 C76.37609375 77.29875 75.7521875 76.5975 75.109375 75.875 C66.91953813 67.6226453 55.74439647 63.67037233 44.25 63.5625 C40.66268788 63.70015267 37.45914438 64.08600976 34 65 Z " fill="#517A91" transform="translate(287,153)"/>
<path d="M0 0 C2.97366283 1.37669575 4.58401152 2.69382918 7 5 C7 5.66 7 6.32 7 7 C7.66 7 8.32 7 9 7 C10.48046875 8.50390625 10.48046875 8.50390625 12.1875 10.5625 C14.53627765 13.34010012 16.92152706 15.93737895 19.5625 18.4375 C24.59868757 23.46229348 29.3421366 28.51107525 29.4375 35.9375 C29.29519123 38.38262348 29.09982232 39.80035536 28 42 C27.34 42 26.68 42 26 42 C24.3682707 39.52589781 22.85299836 37.06340341 21.375 34.5 C20.95476562 33.78457031 20.53453125 33.06914063 20.1015625 32.33203125 C19.06111411 30.55853967 18.02971096 28.77974734 17 27 C12.78345644 28.48635116 9.37521395 30.61249159 5.6875 33.125 C4.61886719 33.84945312 3.55023438 34.57390625 2.44921875 35.3203125 C1.23685547 36.15175781 1.23685547 36.15175781 0 37 C1.62114502 41.79821659 4.29276759 45.6672859 7.125 49.8125 C7.59292969 50.50537109 8.06085938 51.19824219 8.54296875 51.91210938 C9.69112437 53.61091105 10.84499367 55.30584864 12 57 C9.55195621 62.54652252 5.23461488 66.57737619 1.125 70.9375 C0.32835937 71.85080078 -0.46828125 72.76410156 -1.2890625 73.70507812 C-7.23828047 79.94323104 -7.23828047 79.94323104 -11.74267578 80.08837891 C-14.97863708 79.326944 -17.9132694 78.23510024 -21 77 C-22.9267875 76.35637204 -24.85372004 75.71310878 -26.78421021 75.08067322 C-30.24732927 73.93357569 -33.68421108 72.71208699 -37.125 71.5 C-39.89742553 70.52833453 -42.67103133 69.56010344 -45.4453125 68.59375 C-46.10468811 68.36316895 -46.76406372 68.13258789 -47.44342041 67.89501953 C-51.94939088 66.33049182 -56.4779193 64.9190494 -61.07763672 63.65820312 C-63 63 -63 63 -66 61 C-65.84878941 54.51810599 -62.25468389 51.51673745 -57.9375 47.1875 C-56.4723445 45.67608339 -55.00750983 44.16435572 -53.54296875 42.65234375 C-52.78935059 41.8826123 -52.03573242 41.11288086 -51.25927734 40.31982422 C-47.70886438 36.67426295 -44.23103877 32.96164386 -40.75 29.25 C-39.75395752 28.19377441 -39.75395752 28.19377441 -38.73779297 27.11621094 C-35.14799632 23.30731872 -31.59313054 19.47077002 -28.07519531 15.59545898 C-25.74271379 13.03898997 -23.37103836 10.52075151 -21 8 C-20.23558594 7.14921875 -19.47117188 6.2984375 -18.68359375 5.421875 C-13.03693854 -0.35609777 -7.96962209 -1.71092995 0 0 Z " fill="#FEA40A" transform="translate(253,88)"/>
<path d="M0 0 C13.68385509 7.23557269 23.27136412 17.5970524 28.375 32.25 C31.13729987 42.01012622 31.08594145 52.31652855 28 62 C27.63261719 63.17949219 27.63261719 63.17949219 27.2578125 64.3828125 C22.28569843 78.41913452 12.4552338 88.29632725 -0.72290039 94.7121582 C-13.5234023 100.61232277 -27.74544348 100.62976059 -41 96 C-54.61717664 90.1450576 -64.14861512 80.08720959 -69.875 66.5625 C-74.44009212 54.96837532 -75.28244807 40.63093997 -70.9375 28.75 C-66.1795405 18.54298073 -58.6442224 6.88801791 -47.69140625 2.75 C-46.35916016 2.37875 -46.35916016 2.37875 -45 2 C-44.34 4.31 -43.68 6.62 -43 9 C-43.56847656 9.3403125 -44.13695312 9.680625 -44.72265625 10.03125 C-53.196085 15.35013015 -59.24673799 21.64352692 -63 31 C-63.35835938 31.86625 -63.71671875 32.7325 -64.0859375 33.625 C-65.29621225 38.09370677 -65.32961923 42.26650253 -65.3125 46.875 C-65.32861328 47.73480469 -65.34472656 48.59460938 -65.36132812 49.48046875 C-65.36971717 60.53723367 -60.31850851 71.12414226 -52.91796875 79.3046875 C-42.91528651 88.14616223 -31.4216084 91.61082107 -18.32421875 91.28515625 C-13.79999853 90.89706215 -10.11682995 89.87128634 -6 88 C-5.16726563 87.63648438 -4.33453125 87.27296875 -3.4765625 86.8984375 C7.94509715 81.58204937 15.25668721 73.72096582 19.67578125 61.76171875 C21.22517091 56.85736354 21.5002053 52.24264096 21.4375 47.125 C21.42505249 45.809552 21.42505249 45.809552 21.41235352 44.4675293 C21.11882027 33.19104754 17.6097067 25.3029305 10 17 C9.17435547 16.05833984 9.17435547 16.05833984 8.33203125 15.09765625 C0.49901225 7.19547152 -10.64966708 3.74740054 -21.54541016 3.59350586 C-25.0398996 3.63834265 -28.51186169 3.78199136 -32 4 C-32.33 4.66 -32.66 5.32 -33 6 C-33.66 3.03 -34.32 0.06 -35 -3 C-24.40155602 -6.53281466 -9.82762229 -4.87058113 0 0 Z " fill="#3E3D42" transform="translate(353,214)"/>
<path d="M0 0 C3.8136212 1.27120707 4.09338782 2.93472506 5.828125 6.37109375 C6.51860852 7.77524866 7.17847564 9.19493372 7.8046875 10.62890625 C9.00608315 12.92127517 9.98354489 14.36210581 12 16 C16.32420306 17.08572558 20.55991365 17.02811317 25 17 C27.40633021 17.05520155 29.8125844 17.11381851 32.21875 17.17578125 C35.89353299 17.24888177 39.56676446 17.31302269 43.2421875 17.34179688 C44.43070312 17.36951172 45.61921875 17.39722656 46.84375 17.42578125 C47.90787109 17.44036377 48.97199219 17.45494629 50.06835938 17.4699707 C53.68439501 18.12373597 55.37335956 19.48025087 58 22 C59.73631636 25.47263273 59.60190402 29.21193013 59 33 C56.81840855 35.75569447 55.12822506 37.43588747 52 39 C49.63314426 39.0984719 47.26343368 39.13078594 44.89453125 39.1328125 C44.17827072 39.13376923 43.46201019 39.13472595 42.7240448 39.13571167 C41.19827182 39.13639358 39.67249596 39.13453854 38.14672852 39.13037109 C35.86662808 39.12512455 33.58673405 39.13026167 31.30664062 39.13671875 C26.86986178 39.14094995 22.43594212 39.08104569 18 39 C17.29115662 38.99206421 16.58231323 38.98412842 15.85198975 38.97595215 C4.45609218 38.80442593 4.45609218 38.80442593 -0.5 36.06640625 C-3.94142462 31.84528386 -7.04079764 27.50811656 -10 22.9375 C-10.60972656 22.03966797 -11.21945312 21.14183594 -11.84765625 20.21679688 C-12.41355469 19.34990234 -12.97945312 18.48300781 -13.5625 17.58984375 C-14.07941406 16.80472412 -14.59632813 16.01960449 -15.12890625 15.21069336 C-16 13 -16 13 -15.34936523 10.86279297 C-13.18034954 7.86847602 -10.14645412 6.12393631 -7.0625 4.1875 C-6.42892578 3.76791016 -5.79535156 3.34832031 -5.14257812 2.91601562 C-3.48150167 1.85579122 -1.7435019 0.91839636 0 0 Z " fill="#FDB49C" transform="translate(268,114)"/>
<path d="M0 0 C1.76923828 0.01353516 1.76923828 0.01353516 3.57421875 0.02734375 C4.47785156 0.03894531 5.38148438 0.05054688 6.3125 0.0625 C4.5625 5.8125 4.5625 5.8125 2.3125 8.0625 C1.36375 8.02125 0.415 7.98 -0.5625 7.9375 C-10.88613576 7.72331669 -20.29507024 13.31136936 -27.6875 20.0625 C-33.23392975 26.27903744 -36.33094114 33.13128576 -38.6875 41.0625 C-38.88085938 41.70316406 -39.07421875 42.34382813 -39.2734375 43.00390625 C-41.50973424 54.12209855 -39.27121758 65.12067823 -33.5625 74.75 C-26.61072852 84.91696578 -17.24111886 91.61785342 -5.19921875 94.69921875 C7.25902514 96.50111095 19.21766393 94.63320569 29.6875 87.3125 C40.19735103 78.46802151 45.87993025 68.55220495 48.3125 55.0625 C50.6225 55.7225 52.9325 56.3825 55.3125 57.0625 C53.99597493 69.43783568 48.63018225 81.57092153 39.3125 90.0625 C26.12906714 99.95467138 13.90186948 104.30080602 -2.6875 103.0625 C-16.8562058 100.94431408 -28.88851545 93.73706649 -37.7265625 82.4609375 C-45.86762999 70.43987189 -49.49717296 56.36226897 -47.19140625 41.96484375 C-43.85709901 27.36547588 -36.16161358 16.55112442 -24.16015625 7.59765625 C-16.73989755 2.99076578 -8.71690824 -0.08630602 0 0 Z " fill="#565459" transform="translate(177.6875,209.9375)"/>
<path d="M0 0 C0.84848511 -0.0127597 1.69697021 -0.02551941 2.57116699 -0.03866577 C3.95229675 -0.04200424 3.95229675 -0.04200424 5.36132812 -0.04541016 C6.78644714 -0.05539536 6.78644714 -0.05539536 8.24035645 -0.06558228 C10.25787417 -0.07572564 12.27542555 -0.08039878 14.29296875 -0.08007812 C17.35279441 -0.08441625 20.41113628 -0.12061987 23.47070312 -0.15869141 C25.43423989 -0.16456654 27.39778347 -0.16853126 29.36132812 -0.17041016 C30.71816711 -0.19196671 30.71816711 -0.19196671 32.10241699 -0.21395874 C40.49528402 -0.15484996 47.71618259 1.93417007 53.89257812 7.79052734 C58.34751308 12.50247778 59.15485663 15.90299943 59.08007812 22.41552734 C59.07363281 23.65560547 59.0671875 24.89568359 59.06054688 26.17333984 C58.89257812 29.29052734 58.89257812 29.29052734 57.89257812 31.29052734 C52.10534113 30.73905297 47.10449087 29.54992102 41.64257812 27.60302734 C34.88981337 25.27468432 28.11108868 23.08757295 21.26757812 21.04052734 C20.04312988 20.67181519 20.04312988 20.67181519 18.79394531 20.2956543 C15.07146599 19.18693638 11.35259856 18.14134092 7.57617188 17.23193359 C2.12321255 15.83833529 -2.47761227 14.21666597 -6.16992188 9.85302734 C-7.2823593 6.81236504 -7.17338926 5.32443451 -6.10742188 2.29052734 C-3.73099407 -0.08590046 -3.23187794 0.03298101 0 0 Z " fill="#39C41E" transform="translate(265.107421875,53.70947265625)"/>
<path d="M0 0 C5.28988675 0.60135846 10.00406617 1.82202445 15.03125 3.546875 C16.16161682 3.92649384 16.16161682 3.92649384 17.31481934 4.31378174 C19.71183468 5.12019001 22.10593629 5.934876 24.5 6.75 C26.07533119 7.28181209 27.65085076 7.8130665 29.2265625 8.34375 C31.56123593 9.13015177 33.89528989 9.91814362 36.22740173 10.71211243 C39.90586085 11.96395277 43.58780944 13.19575537 47.29125977 14.37182617 C47.96648682 14.5886908 48.64171387 14.80555542 49.33740234 15.0289917 C51.15276537 15.60997385 52.97093483 16.18216659 54.78930664 16.75366211 C59.77491659 18.68899317 63.87825266 21.63471453 68 25 C64.29962682 29.50045387 60.40943638 33.79872349 56.375 38 C55.90795654 38.5050708 55.44091309 39.0101416 54.9597168 39.53051758 C53.5859375 40.9375 53.5859375 40.9375 51 43 C48.07143876 42.6374652 45.99027045 41.53484998 43.55859375 39.91796875 C42.90181641 39.48653564 42.24503906 39.05510254 41.56835938 38.6105957 C40.86517578 38.14097412 40.16199219 37.67135254 39.4375 37.1875 C37.91624 36.18356805 36.39406922 35.18101515 34.87109375 34.1796875 C34.07687012 33.65729492 33.28264648 33.13490234 32.46435547 32.59667969 C29.98677053 30.9914285 27.48641678 29.43071619 24.97265625 27.8828125 C2.85316931 14.25239095 2.85316931 14.25239095 0 7 C-0.0777346 4.66796188 -0.08967728 2.33160941 0 0 Z " fill="#3F5164" transform="translate(186,150)"/>
<path d="M0 0 C2.49361571 1.20381448 4.68143083 2.45428722 7 4 C9.58885171 4.29991069 12.09149082 4.50865225 14.6875 4.625 C15.38939453 4.66367188 16.09128906 4.70234375 16.81445312 4.7421875 C18.54254655 4.8362334 20.27123675 4.9191968 22 5 C25.67092446 12.55663706 30 21.50078017 30 30 C25.98000517 30.28752483 21.95982309 30.57225991 17.93945312 30.85449219 C16.57383992 30.95074402 15.20827876 31.04773737 13.84277344 31.14550781 C11.87188584 31.28649101 9.90078784 31.42452298 7.9296875 31.5625 C6.74616699 31.64628906 5.56264648 31.73007813 4.34326172 31.81640625 C-2.38302287 32.18577722 -5.56506895 32.12982414 -11.1875 28.125 C-12.21230469 27.40570313 -13.23710937 26.68640625 -14.29296875 25.9453125 C-15.18628906 25.30335938 -16.07960937 24.66140625 -17 24 C-17.99 23.34 -18.98 22.68 -20 22 C-18.51346494 18.53370165 -16.54277649 16.30977964 -13.8671875 13.671875 C-12.65869141 12.47304687 -12.65869141 12.47304687 -11.42578125 11.25 C-10.58402344 10.425 -9.74226562 9.6 -8.875 8.75 C-8.02550781 7.90953125 -7.17601562 7.0690625 -6.30078125 6.203125 C-4.20495077 4.13084317 -2.10459287 2.06337607 0 0 Z " fill="#E4585A" transform="translate(264,147)"/>
<path d="M0 0 C4.75927975 0.58312304 9.13943416 1.52252715 13.7109375 2.9609375 C14.95617187 3.35023437 16.20140625 3.73953125 17.484375 4.140625 C18.78126814 4.55202615 20.07814303 4.96348483 21.375 5.375 C22.66391293 5.77912318 23.95297451 6.18277257 25.2421875 6.5859375 C31.84997225 8.66110957 38.43808866 10.78410401 45 13 C43.98439663 19.48160351 41.04257989 24.62195471 35.8359375 28.69140625 C29.16031694 32.50759976 22.54936905 33.038904 15 32 C8.27965326 30.02198204 3.44204467 23.85586001 -0.1875 18.125 C-1.25571523 15.33120632 -1.22852776 12.98383676 -1.1875 10 C-1.18105469 8.96875 -1.17460937 7.9375 -1.16796875 6.875 C-1.02449792 4.41931318 -0.7046041 2.34492245 0 0 Z " fill="#FEB49C" transform="translate(273,71)"/>
<path d="M0 0 C11.64792707 -0.86068427 11.64792707 -0.86068427 16.25 2.375 C17.1575 3.24125 18.065 4.1075 19 5 C19 5.66 19 6.32 19 7 C19.66 7 20.32 7 21 7 C22.48046875 8.50390625 22.48046875 8.50390625 24.1875 10.5625 C26.53627765 13.34010012 28.92152706 15.93737895 31.5625 18.4375 C36.59868757 23.46229348 41.3421366 28.51107525 41.4375 35.9375 C41.29519123 38.38262348 41.09982232 39.80035536 40 42 C39.34 42 38.68 42 38 42 C36.3682707 39.52589781 34.85299836 37.06340341 33.375 34.5 C32.95476562 33.78457031 32.53453125 33.06914063 32.1015625 32.33203125 C31.06111411 30.55853967 30.02971096 28.77974734 29 27 C23.9814062 28.79430668 19.97911942 31.62055397 15.62109375 34.63671875 C13 36 13 36 10.875 36.02734375 C8.13371328 34.52534707 7.14066465 32.55022599 5.5625 29.875 C3.51708895 26.48797525 1.47972366 23.18058326 -0.875 20 C-4.01869992 15.56183541 -4.44791606 12.3749927 -4 7 C-2.87148645 4.46207651 -1.52758429 2.33911345 0 0 Z " fill="#F9870B" transform="translate(241,88)"/>
<path d="M0 0 C0.66 2.31 1.32 4.62 2 7 C1.43152344 7.3403125 0.86304688 7.680625 0.27734375 8.03125 C-8.196085 13.35013015 -14.24673799 19.64352692 -18 29 C-18.35835938 29.86625 -18.71671875 30.7325 -19.0859375 31.625 C-20.29621225 36.09370677 -20.32961923 40.26650253 -20.3125 44.875 C-20.32861328 45.73480469 -20.34472656 46.59460938 -20.36132812 47.48046875 C-20.36971717 58.53723367 -15.31850851 69.12414226 -7.91796875 77.3046875 C0.81210952 85.02129436 11.59493575 88.7603191 23 90 C23 92.31 23 94.62 23 97 C7.46107244 96.72430935 -3.7191978 91.31430777 -15 81 C-26.54590342 68.14159602 -28.88719608 53.26692818 -28.22216797 36.68261719 C-27.10131417 23.14861545 -18.11785275 12.44251581 -8.33203125 3.8125 C-3.42672414 0 -3.42672414 0 0 0 Z " fill="#565459" transform="translate(308,216)"/>
<path d="M0 0 C6.88299608 3.03163591 12.95160448 7.58493834 19 12 C20.3526183 12.94436327 21.70546175 13.88840419 23.05859375 14.83203125 C24.51458984 15.90517578 24.51458984 15.90517578 26 17 C26 17.33 26 17.66 26 18 C19.96780145 18.14849192 13.93666987 18.25728505 7.90307617 18.32958984 C5.85145534 18.35973452 3.7999631 18.40065836 1.7487793 18.45263672 C-1.20295941 18.52555446 -4.15299274 18.55947901 -7.10546875 18.5859375 C-8.02023483 18.61690521 -8.93500092 18.64787292 -9.87748718 18.67977905 C-16.08208719 18.68304668 -16.08208719 18.68304668 -18.70401001 16.73199463 C-20.90216021 14.21833607 -21.9590618 12.22288574 -22.5625 8.9375 C-21.87020639 5.32218892 -20.54408967 3.61891584 -18 1 C-12.71985722 -1.64007139 -5.661792 -1.32299886 0 0 Z " fill="#B8CACF" transform="translate(197,168)"/>
<path d="M0 0 C3.12496875 4.68745313 5.13634202 9.89717835 7.33276367 15.06713867 C7.89889788 16.38876531 8.47400239 17.70658821 9.05834961 19.02026367 C13.19440677 28.3272713 15.10412279 35.15526321 12.02734375 45.1640625 C11.66769531 45.97617188 11.30804688 46.78828125 10.9375 47.625 C10.57527344 48.46289062 10.21304688 49.30078125 9.83984375 50.1640625 C9.56269531 50.76992187 9.28554687 51.37578125 9 52 C8.34 52 7.68 52 7 52 C6.773125 50.948125 6.54625 49.89625 6.3125 48.8125 C4.06029753 39.8354113 0.22483447 31.34690615 -3.66796875 22.98046875 C-5.58630501 18.68812105 -7.3101848 14.32352288 -9.03295898 9.94970703 C-10.41402796 6.43002892 -10.41402796 6.43002892 -12 3 C-11.67 2.34 -11.34 1.68 -11 1 C-8.49609375 0.5859375 -8.49609375 0.5859375 -5.4375 0.375 C-4.42558594 0.30023438 -3.41367188 0.22546875 -2.37109375 0.1484375 C-1.58863281 0.09945312 -0.80617187 0.05046875 0 0 Z " fill="#4A728A" transform="translate(216,194)"/>
<path d="M0 0 C2.31 0.66 4.62 1.32 7 2 C5.68347493 14.37533568 0.31768225 26.50842153 -9 35 C-20.08924672 43.32080158 -30.90558213 48.61280078 -45 48 C-45 45.69 -45 43.38 -45 41 C-44.00033203 40.85304688 -44.00033203 40.85304688 -42.98046875 40.703125 C-27.62408613 38.21173985 -16.33369049 32.73139367 -7 20 C-3.35845677 13.61116592 -1.29988069 7.20842925 0 0 Z " fill="#3F3D42" transform="translate(226,265)"/>
<path d="M0 0 C-0.67953209 3.99590879 -1.86503339 7.60154488 -3.28515625 11.39453125 C-3.73310547 12.59658203 -4.18105469 13.79863281 -4.64257812 15.03710938 C-5.11580346 16.29560374 -5.58911179 17.5540669 -6.0625 18.8125 C-6.54005989 20.09036541 -7.017277 21.36835898 -7.49414062 22.64648438 C-8.65939512 25.76559995 -9.82813007 28.88336515 -11 32 C-14.18333426 27.22499861 -16.09437759 21.83681182 -18.27783203 16.54833984 C-19.12300105 14.5048332 -19.97720788 12.46526496 -20.83203125 10.42578125 C-21.37034654 9.12783416 -21.90812529 7.82966438 -22.4453125 6.53125 C-22.93531738 5.35111328 -23.42532227 4.17097656 -23.93017578 2.95507812 C-25 0 -25 0 -25 -3 C-6.31812471 -5.18410233 -6.31812471 -5.18410233 0 0 Z " fill="#E5585A" transform="translate(242,197)"/>
<path d="M0 0 C4.866909 0.45273572 7.4419325 1.64525064 11 5 C12.86233425 8.72466849 12.57130829 12.94495313 12 17 C10.3279253 20.12578143 8.2143765 22.39281175 5 24 C0.91444146 24.51436888 -3.21847627 24.92098732 -6.95703125 22.98828125 C-9.59384934 20.85188119 -10.92211726 19.23364822 -12 16 C-12.06740865 14.43881572 -12.08514456 12.8749748 -12.0625 11.3125 C-12.05347656 10.50425781 -12.04445313 9.69601562 -12.03515625 8.86328125 C-12.02355469 8.24839844 -12.01195312 7.63351562 -12 7 C-11.34 7 -10.68 7 -10 7 C-9.01 8.485 -9.01 8.485 -8 10 C-5 10.41666667 -5 10.41666667 -2 10 C0.18331689 8.23863645 0.18331689 8.23863645 0.1953125 6.0546875 C0.17210937 5.33539063 0.14890625 4.61609375 0.125 3.875 C0.08375 2.59625 0.0425 1.3175 0 0 Z " fill="#B8B6BB" transform="translate(331,249)"/>
<path d="M0 0 C2.72122848 2.36712923 3.82568116 4.58010315 5.0859375 7.9375 C5.64667969 9.40509766 5.64667969 9.40509766 6.21875 10.90234375 C6.6003125 11.92457031 6.981875 12.94679687 7.375 14 C9.99744157 20.9539916 12.7277367 27.79124563 15.87353516 34.52734375 C16.43113525 35.75130859 16.43113525 35.75130859 17 37 C17.59820557 38.30130859 17.59820557 38.30130859 18.20849609 39.62890625 C19 42 19 42 18 45 C17.5875 44.28714844 17.175 43.57429688 16.75 42.83984375 C10.8032179 32.97721183 5.09247021 27.45429305 -5.58203125 23.04296875 C-8 22 -8 22 -11 20 C-9.35716015 16.85259451 -7.71022952 13.70734802 -6.0625 10.5625 C-5.59392578 9.66466797 -5.12535156 8.76683594 -4.64257812 7.84179688 C-4.19462891 6.98779297 -3.74667969 6.13378906 -3.28515625 5.25390625 C-2.87144775 4.46314697 -2.45773926 3.6723877 -2.03149414 2.85766602 C-1 1 -1 1 0 0 Z " fill="#3E3E43" transform="translate(204,198)"/>
<path d="M0 0 C2.4375 0.8125 2.4375 0.8125 5 2 C5.33 2.99 5.66 3.98 6 5 C6.66 5 7.32 5 8 5 C9.48046875 6.50390625 9.48046875 6.50390625 11.1875 8.5625 C13.53627765 11.34010012 15.92152706 13.93737895 18.5625 16.4375 C23.59868757 21.46229348 28.3421366 26.51107525 28.4375 33.9375 C28.29519123 36.38262348 28.09982232 37.80035536 27 40 C26.34 40 25.68 40 25 40 C23.77001953 38.35791016 23.77001953 38.35791016 22.3828125 36.0390625 C21.86356201 35.18280273 21.34431152 34.32654297 20.80932617 33.44433594 C20.25349854 32.51395508 19.6976709 31.58357422 19.125 30.625 C14.14638138 22.41797599 9.00110462 14.36489916 3.60791016 6.42431641 C0 1.09380961 0 1.09380961 0 0 Z " fill="#FCA20F" transform="translate(254,90)"/>
<path d="M0 0 C7.92 0 15.84 0 24 0 C23.05034634 5.69792198 22.70282493 7.07276144 19 11 C15.26299831 12.86850084 11.06934775 12.54216425 7 12 C4.06164888 10.69211118 3.14988819 9.5908909 1 7 C0.67 4.69 0.34 2.38 0 0 Z " fill="#B9B7BC" transform="translate(170,261)"/>
<path d="M0 0 C-1.4841373 3.48654476 -3.46214052 5.64191072 -6.1875 8.25 C-9.81150217 11.78660662 -13.19573953 15.42878606 -16.4921875 19.26953125 C-18.23934072 21.27468378 -20.08170118 23.15843313 -22 25 C-21.58307183 21.03918242 -20.54775485 17.75885921 -19 14.125 C-17.13614614 9.66795815 -16.35595682 5.80541707 -16 1 C-10.62915894 0.31798844 -5.41499441 -0.11521265 0 0 Z " fill="#E35A5C" transform="translate(286,189)"/>
<path d="M0 0 C2.44680951 2.19254508 3.66598444 4.10996647 4.859375 7.16015625 C5.17003906 7.95357422 5.48070312 8.74699219 5.80078125 9.56445312 C6.11402344 10.38880859 6.42726562 11.21316406 6.75 12.0625 C7.07871094 12.89072266 7.40742188 13.71894531 7.74609375 14.57226562 C9.51833794 19.16738822 9.51833794 19.16738822 10 21 C9.67 21.66 9.34 22.32 9 23 C8.14728516 22.40251953 8.14728516 22.40251953 7.27734375 21.79296875 C2.64274107 18.61296591 -1.7499834 16.01064466 -7 14 C-5.53967505 8.68972746 -3.01679014 4.53669968 0 0 Z " fill="#DC585B" transform="translate(204,198)"/>
<path d="M0 0 C0.90105469 0.00902344 1.80210937 0.01804688 2.73046875 0.02734375 C3.41753906 0.03894531 4.10460937 0.05054688 4.8125 0.0625 C4.8125 2.3725 4.8125 4.6825 4.8125 7.0625 C3.74708984 7.13597656 3.74708984 7.13597656 2.66015625 7.2109375 C1.74105469 7.28570312 0.82195312 7.36046875 -0.125 7.4375 C-1.04152344 7.50710937 -1.95804687 7.57671875 -2.90234375 7.6484375 C-3.65644531 7.78507813 -4.41054688 7.92171875 -5.1875 8.0625 C-5.5175 8.7225 -5.8475 9.3825 -6.1875 10.0625 C-6.8475 7.0925 -7.5075 4.1225 -8.1875 1.0625 C-5.17259443 0.05753148 -3.14568308 -0.04085303 0 0 Z " fill="#59545A" transform="translate(326.1875,209.9375)"/>
<path d="M0 0 C0.66 0.33 1.32 0.66 2 1 C1.690625 1.53625 1.38125 2.0725 1.0625 2.625 C-0.17827439 5.3984957 -0.5909675 8.00042837 -1 11 C-1.33 11 -1.66 11 -2 11 C-2.33 9.35 -2.66 7.7 -3 6 C-6.3 9.3 -9.6 12.6 -13 16 C-13 13 -13 13 -11.80664062 11.46606445 C-11.26201172 10.937146 -10.71738281 10.40822754 -10.15625 9.86328125 C-9.56972656 9.28642578 -8.98320312 8.70957031 -8.37890625 8.11523438 C-7.75886719 7.52033203 -7.13882813 6.92542969 -6.5 6.3125 C-5.87996094 5.70599609 -5.25992188 5.09949219 -4.62109375 4.47460938 C-3.08735293 2.97626257 -1.54451802 1.48723507 0 0 Z " fill="#F89A14" transform="translate(238,90)"/>
</svg>
