<?xml version="1.0" encoding="UTF-8"?>
<svg version="1.1" xmlns="http://www.w3.org/2000/svg" width="512" height="512">
<path d="M0 0 C1.41371384 -0.01469078 1.41371384 -0.01469078 2.85598755 -0.02967834 C42.4089307 -0.35618772 42.4089307 -0.35618772 61.03515625 4.23828125 C61.95425781 4.46322266 62.87335938 4.68816406 63.8203125 4.91992188 C81.4635647 9.37367747 98.00010367 15.66443681 114.03515625 24.23828125 C114.64101563 24.56054688 115.246875 24.8828125 115.87109375 25.21484375 C142.1362275 39.32231734 165.66362493 60.02740101 183.03515625 84.23828125 C183.64617187 85.07480225 183.64617187 85.07480225 184.26953125 85.92822266 C210.32356426 121.9071108 224.24931672 166.24954071 224.28515625 210.48828125 C224.28583099 211.2398349 224.28650574 211.99138855 224.28720093 212.76571655 C224.26917066 225.46256307 223.50327236 237.75437505 221.03515625 250.23828125 C220.86886719 251.09599121 220.70257813 251.95370117 220.53125 252.83740234 C216.71531222 271.87822519 210.31622767 290.24817587 201.06494141 307.33496094 C200.00947343 309.28575002 198.98166325 311.24974644 197.953125 313.21484375 C191.0042435 326.24893971 182.35346942 338.0394472 172.265625 348.83203125 C170.37491817 350.87174299 168.56611154 352.9506086 166.7578125 355.0625 C163.17170413 359.17360279 159.30193662 362.86622656 155.28515625 366.55078125 C147.88462967 373.41746154 140.71348019 380.48430586 133.63183594 387.67895508 C130.22526341 391.12348487 126.81276888 394.48783514 123.1328125 397.640625 C117.99117256 402.06000663 113.29219824 406.91298902 108.53515625 411.73828125 C98.51803157 421.89912364 98.51803157 421.89912364 94.06640625 425.70703125 C88.76458584 430.24761961 83.93209238 435.27143644 79.03515625 440.23828125 C73.53682139 445.81511035 68.04122841 451.31601739 62.0859375 456.41015625 C57.70723827 460.31345385 53.65172028 464.56265604 49.53515625 468.73828125 C44.17191964 474.1784653 38.81710971 479.51685103 33.01367188 484.48681641 C29.18599898 487.87523266 25.62817685 491.54228469 22.03515625 495.17578125 C20.87306641 496.34463867 20.87306641 496.34463867 19.6875 497.53710938 C17.80104868 499.43520545 15.9169938 501.33561274 14.03515625 503.23828125 C10.28204743 501.68062198 7.94097712 499.36028685 5.11328125 496.4765625 C4.64960144 496.00768112 4.18592163 495.53879974 3.70819092 495.05570984 C2.228986 493.55876527 0.75662924 492.05532376 -0.71484375 490.55078125 C-2.64363682 488.58506887 -4.57569341 486.62265253 -6.51171875 484.6640625 C-6.98532837 484.18486359 -7.45893799 483.70566467 -7.94689941 483.21194458 C-11.13861573 480.00654869 -14.45431907 477.02205999 -17.89160156 474.08666992 C-22.95867323 469.56914759 -27.63638772 464.61425432 -32.40136719 459.78125 C-39.00107987 453.06779999 -39.00107987 453.06779999 -45.96484375 446.73828125 C-51.77370983 441.76939377 -57.0386759 436.22049908 -62.40136719 430.78125 C-68.98463946 424.08246726 -68.98463946 424.08246726 -75.93359375 417.76953125 C-81.95644226 412.61760381 -87.41173802 406.84645992 -92.97412109 401.20849609 C-99.77891918 394.27644471 -99.77891918 394.27644471 -106.9609375 387.7421875 C-112.45810326 383.04583993 -117.45318701 377.81854079 -122.52734375 372.67578125 C-128.49504458 366.62768157 -134.4447401 360.70014818 -140.96484375 355.23828125 C-143.46866709 352.71263809 -145.69783365 349.97758512 -147.96484375 347.23828125 C-148.38894531 346.7371582 -148.81304687 346.23603516 -149.25 345.71972656 C-180.90787103 308.21969966 -198.5323123 260.70904659 -198.27734375 211.61328125 C-198.27552094 210.87671295 -198.27369812 210.14014465 -198.27182007 209.3812561 C-198.21976381 196.80822959 -197.40844515 184.59819029 -194.96484375 172.23828125 C-194.79855469 171.38057129 -194.63226563 170.52286133 -194.4609375 169.63916016 C-186.58115157 130.32048756 -167.6000292 93.29494372 -139.96484375 64.23828125 C-139.44325684 63.68414551 -138.92166992 63.13000977 -138.38427734 62.55908203 C-103.20958504 25.40749814 -51.61420934 0.44167634 0 0 Z " fill="#E75759" transform="translate(242.96484375,-0.23828125)"/>
<path d="M0 0 C10.56 0 21.12 0 32 0 C32 8.25 32 16.5 32 25 C34.3925 25.33 36.785 25.66 39.25 26 C61.44518544 29.64177242 80.6058713 41.05038893 97 56 C97.66386719 56.59296875 98.32773437 57.1859375 99.01171875 57.796875 C117.9998999 75.67851878 131.07888188 103.00757938 133 129 C133.10901541 133.00132109 133.09506016 136.99760473 133.0625 141 C133.05798828 142.06089844 133.05347656 143.12179688 133.04882812 144.21484375 C133.03713859 146.80992055 133.01920665 149.40496795 133 152 C136.63 152 140.26 152 144 152 C144 162.56 144 173.12 144 184 C59.52 184 -24.96 184 -112 184 C-112 173.44 -112 162.88 -112 152 C-108.37 152 -104.74 152 -101 152 C-101.02320313 150.65808594 -101.04640625 149.31617188 -101.0703125 147.93359375 C-101.50487632 112.6293678 -90.80962092 82.73282512 -66.25 56.9375 C-49.53338607 40.78251144 -23.99208436 25 0 25 C0 16.75 0 8.5 0 0 Z " fill="#FEFEFE" transform="translate(240,96)"/>
<path d="M0 0 C84.48 0 168.96 0 256 0 C256 10.56 256 21.12 256 32 C171.52 32 87.04 32 0 32 C0 21.44 0 10.88 0 0 Z " fill="#CDD2CA" transform="translate(128,248)"/>
<path d="M0 0 C10.56 0 21.12 0 32 0 C32 8.25 32 16.5 32 25 C21.44 25 10.88 25 0 25 C0 16.75 0 8.5 0 0 Z " fill="#CDD2CA" transform="translate(240,96)"/>
</svg>
