<?xml version="1.0" encoding="UTF-8"?>
<svg version="1.1" xmlns="http://www.w3.org/2000/svg" width="512" height="512">
<path d="M0 0 C1.41371384 -0.01469078 1.41371384 -0.01469078 2.85598755 -0.02967834 C42.4089307 -0.35618772 42.4089307 -0.35618772 61.03515625 4.23828125 C61.95425781 4.46322266 62.87335938 4.68816406 63.8203125 4.91992188 C81.4635647 9.37367747 98.00010367 15.66443681 114.03515625 24.23828125 C114.64101563 24.56054688 115.246875 24.8828125 115.87109375 25.21484375 C142.1362275 39.32231734 165.66362493 60.02740101 183.03515625 84.23828125 C183.64617187 85.07480225 183.64617187 85.07480225 184.26953125 85.92822266 C210.32356426 121.9071108 224.24931672 166.24954071 224.28515625 210.48828125 C224.28583099 211.2398349 224.28650574 211.99138855 224.28720093 212.76571655 C224.26917066 225.46256307 223.50327236 237.75437505 221.03515625 250.23828125 C220.86886719 251.09599121 220.70257813 251.95370117 220.53125 252.83740234 C216.71531222 271.87822519 210.31622767 290.24817587 201.06494141 307.33496094 C200.00947343 309.28575002 198.98166325 311.24974644 197.953125 313.21484375 C191.0042435 326.24893971 182.35346942 338.0394472 172.265625 348.83203125 C170.37491817 350.87174299 168.56611154 352.9506086 166.7578125 355.0625 C163.17170413 359.17360279 159.30193662 362.86622656 155.28515625 366.55078125 C147.88462967 373.41746154 140.71348019 380.48430586 133.63183594 387.67895508 C130.22526341 391.12348487 126.81276888 394.48783514 123.1328125 397.640625 C117.99117256 402.06000663 113.29219824 406.91298902 108.53515625 411.73828125 C98.51803157 421.89912364 98.51803157 421.89912364 94.06640625 425.70703125 C88.76458584 430.24761961 83.93209238 435.27143644 79.03515625 440.23828125 C73.53682139 445.81511035 68.04122841 451.31601739 62.0859375 456.41015625 C57.70723827 460.31345385 53.65172028 464.56265604 49.53515625 468.73828125 C44.17191964 474.1784653 38.81710971 479.51685103 33.01367188 484.48681641 C29.18599898 487.87523266 25.62817685 491.54228469 22.03515625 495.17578125 C20.87306641 496.34463867 20.87306641 496.34463867 19.6875 497.53710938 C17.80104868 499.43520545 15.9169938 501.33561274 14.03515625 503.23828125 C10.28204743 501.68062198 7.94097712 499.36028685 5.11328125 496.4765625 C4.64960144 496.00768112 4.18592163 495.53879974 3.70819092 495.05570984 C2.228986 493.55876527 0.75662924 492.05532376 -0.71484375 490.55078125 C-2.64363682 488.58506887 -4.57569341 486.62265253 -6.51171875 484.6640625 C-6.98532837 484.18486359 -7.45893799 483.70566467 -7.94689941 483.21194458 C-11.13861573 480.00654869 -14.45431907 477.02205999 -17.89160156 474.08666992 C-22.95867323 469.56914759 -27.63638772 464.61425432 -32.40136719 459.78125 C-39.00107987 453.06779999 -39.00107987 453.06779999 -45.96484375 446.73828125 C-51.77370983 441.76939377 -57.0386759 436.22049908 -62.40136719 430.78125 C-68.98463946 424.08246726 -68.98463946 424.08246726 -75.93359375 417.76953125 C-81.95644226 412.61760381 -87.41173802 406.84645992 -92.97412109 401.20849609 C-99.77891918 394.27644471 -99.77891918 394.27644471 -106.9609375 387.7421875 C-112.45810326 383.04583993 -117.45318701 377.81854079 -122.52734375 372.67578125 C-128.49504458 366.62768157 -134.4447401 360.70014818 -140.96484375 355.23828125 C-143.46866709 352.71263809 -145.69783365 349.97758512 -147.96484375 347.23828125 C-148.38894531 346.7371582 -148.81304687 346.23603516 -149.25 345.71972656 C-180.90787103 308.21969966 -198.5323123 260.70904659 -198.27734375 211.61328125 C-198.27552094 210.87671295 -198.27369812 210.14014465 -198.27182007 209.3812561 C-198.21976381 196.80822959 -197.40844515 184.59819029 -194.96484375 172.23828125 C-194.79855469 171.38057129 -194.63226563 170.52286133 -194.4609375 169.63916016 C-186.58115157 130.32048756 -167.6000292 93.29494372 -139.96484375 64.23828125 C-139.44325684 63.68414551 -138.92166992 63.13000977 -138.38427734 62.55908203 C-103.20958504 25.40749814 -51.61420934 0.44167634 0 0 Z " fill="#E65658" transform="translate(242.96484375,-0.23828125)"/>
<path d="M0 0 C3.50666299 1.2859346 7.02971656 1.8422975 10.69921875 2.43359375 C28.2036637 5.54189797 43.16233032 13.6294166 53.88671875 28.05859375 C60.32710705 37.93857404 63.11857621 46.8527524 63.19921875 58.55859375 C63.20767822 59.76237671 63.20767822 59.76237671 63.21630859 60.99047852 C63.14309571 66.80221679 63.14309571 66.80221679 60.88671875 69.05859375 C57.84527284 69.25671222 54.8947431 69.32771977 51.85205078 69.31256104 C50.90436892 69.31568102 49.95668705 69.318801 48.98028755 69.32201552 C45.78497334 69.33003249 42.58984709 69.32365751 39.39453125 69.31738281 C37.11179492 69.32009103 34.82905947 69.32365101 32.54632568 69.32800293 C26.33161034 69.3371493 20.11696112 69.33357343 13.90224457 69.32724476 C7.4115531 69.32219637 0.92086746 69.32687296 -5.56982422 69.33001709 C-17.17084997 69.33389377 -28.77184542 69.32766165 -40.37286639 69.31749842 C-50.89898319 69.30856248 -61.42505588 69.31011439 -71.95117188 69.31933594 C-84.16438998 69.33003043 -96.37757665 69.33402756 -108.59079933 69.32811141 C-115.05970952 69.32498641 -121.5285893 69.32459686 -127.99749756 69.33118439 C-134.07786854 69.33694326 -140.15815586 69.33298779 -146.23851776 69.32139587 C-148.4759075 69.31874145 -150.71330422 69.31952761 -152.95069122 69.3239212 C-155.99342838 69.32934735 -159.03589368 69.32257835 -162.07861328 69.31256104 C-163.4218784 69.3192532 -163.4218784 69.3192532 -164.7922802 69.32608056 C-170.88498125 69.28689375 -170.88498125 69.28689375 -173.11328125 67.05859375 C-174.51092848 50.83136493 -171.72243273 36.70627582 -161.265625 23.7734375 C-149.36580266 11.09169665 -134.65920904 6.81624838 -118.11328125 4.05859375 C-116.09171863 3.70861378 -114.07077496 3.35501825 -112.05078125 2.99609375 C-111.18195313 2.85042969 -110.313125 2.70476562 -109.41796875 2.5546875 C-106.86231133 2.08419732 -106.86231133 2.08419732 -103.67578125 0.55859375 C-98.63144168 -0.14938373 -95.87981593 1.9273637 -91.50390625 4.32421875 C-87.85729869 6.18953414 -84.24177822 7.58296205 -80.36328125 8.87109375 C-79.1721875 9.26941406 -77.98109375 9.66773438 -76.75390625 10.078125 C-57.5988519 15.23683599 -34.69485531 13.06016129 -17.11328125 4.05859375 C-15.3979598 2.90222607 -13.68933954 1.73584249 -11.98828125 0.55859375 C-7.27745269 -2.35585873 -5.01879723 -2.02485226 0 0 Z " fill="#194793" transform="translate(311.11328125,224.94140625)"/>
<path d="M0 0 C8.28539181 3.11996785 13.0412825 10.90103538 16.75 18.50390625 C18.92196699 25.56279898 18.79754604 33.06009592 19.0625 40.37890625 C19.10568359 41.49201172 19.14886719 42.60511719 19.19335938 43.75195312 C19.29879888 46.48166469 19.40092029 49.21145768 19.5 51.94140625 C20.49 51.28140625 21.48 50.62140625 22.5 49.94140625 C27.7722372 49.39221488 27.7722372 49.39221488 30.1875 51.21484375 C31.5 52.94140625 31.5 52.94140625 31.5 56.87890625 C30.62797325 62.95302358 28.03941473 68.40342061 25.5 73.94140625 C23.19 73.94140625 20.88 73.94140625 18.5 73.94140625 C18.37044922 75.1015625 18.37044922 75.1015625 18.23828125 76.28515625 C17.283126 83.36557318 15.82212576 88.27227652 11.5 93.94140625 C10.95214844 94.6890625 10.40429688 95.43671875 9.83984375 96.20703125 C8.41377096 98.13543227 6.96788747 100.0447544 5.5 101.94140625 C9.5431519 108.38095518 12.65538979 112.58367294 19.5 115.94140625 C20.86556253 117.24171181 22.20529025 118.5705371 23.5 119.94140625 C8.45887212 129.62496425 -6.4684535 134.15767366 -24.3125 134.25390625 C-25.17157959 134.25946533 -26.03065918 134.26502441 -26.91577148 134.27075195 C-42.09417348 134.10014257 -56.25912782 129.09863445 -69.5 121.94140625 C-68.35755618 118.51407478 -67.47591554 117.95815771 -64.6875 115.81640625 C-60.46442959 112.23135367 -57.72657319 108.40786628 -56.5 102.94140625 C-56.82204727 98.903429 -57.94917193 97.10002711 -60.8125 94.31640625 C-65.47245655 89.2633258 -68.35850534 83.04475153 -68.59765625 76.109375 C-68.56542969 75.39394531 -68.53320312 74.67851562 -68.5 73.94140625 C-69.4075 74.02390625 -70.315 74.10640625 -71.25 74.19140625 C-74.5 73.94140625 -74.5 73.94140625 -76.75 72.31640625 C-80.1899132 67.64795263 -80.77644123 62.94538068 -80.75 57.25390625 C-80.75515625 56.13628906 -80.7603125 55.01867187 -80.765625 53.8671875 C-80.5 50.94140625 -80.5 50.94140625 -78.5 47.94140625 C-73.68778226 47.47869301 -69.97970138 48.1932301 -65.5 49.94140625 C-65.62375 48.08515625 -65.62375 48.08515625 -65.75 46.19140625 C-65.72250202 37.46079662 -62.53008672 29.52917637 -57.2578125 22.66015625 C-52.595503 18.10145363 -47.77916516 16.1758695 -41.5 14.87890625 C-40.75596924 14.71245605 -40.01193848 14.54600586 -39.24536133 14.37451172 C-35.73943472 13.59724558 -32.23003621 12.89118688 -28.69921875 12.234375 C-20.1555352 10.60926945 -10.51310595 8.41160342 -4.4765625 1.6875 C-2.5 -0.05859375 -2.5 -0.05859375 0 0 Z " fill="#E8BD78" transform="translate(280.5,104.05859375)"/>
<path d="M0 0 C9.5326252 0.16691367 18.43138193 3.91996273 25.375 10.3125 C26.27412109 11.12847656 26.27412109 11.12847656 27.19140625 11.9609375 C28.64928104 13.34777895 30.0214847 14.82363317 31.375 16.3125 C31.375 16.9725 31.375 17.6325 31.375 18.3125 C31.931875 18.33828125 32.48875 18.3640625 33.0625 18.390625 C41.63437789 19.02772403 47.8212731 21.89097798 53.7109375 28.2109375 C62.90399636 39.82095081 65.91572088 53.74168257 64.375 68.3125 C62.60579025 77.2910738 59.17832949 85.96057626 52.375 92.3125 C50.89 92.8075 50.89 92.8075 49.375 93.3125 C49.31892578 91.80623047 49.31892578 91.80623047 49.26171875 90.26953125 C48.62159755 75.96352585 47.42311792 61.59078672 36.375 51.3125 C33.48764399 48.79770606 31.24758099 47.54795292 27.375 47.3125 C25.691223 48.31440398 25.691223 48.31440398 24.3125 49.9375 C15.4453512 58.02060617 3.78598468 59.46845972 -7.64013672 61.43774414 C-15.13053042 62.78114886 -23.12513653 64.28859114 -27.875 70.8125 C-33.06732813 78.40999375 -35.02144438 87.25916568 -35.625 96.3125 C-37.30576231 95.68221413 -38.96802621 95.00290574 -40.625 94.3125 C-41.28395264 94.15386475 -41.94290527 93.99522949 -42.62182617 93.83178711 C-45.2139525 92.99655641 -46.68751265 92.25213713 -48.625 90.3125 C-49.89806048 85.47518588 -49.89098229 80.60004008 -49.9375 75.625 C-50.12414915 58.96302601 -50.12414915 58.96302601 -58.625 45.3125 C-59.93829062 44.60717032 -61.26889354 43.93152949 -62.625 43.3125 C-56.94240251 35.48591884 -51.05336247 28.27616643 -43.640625 22.0234375 C-42.33283757 20.91333886 -41.04933048 19.77373238 -39.796875 18.6015625 C-28.44550672 8.06100624 -15.3955057 1.32719877 0 0 Z " fill="#343231" transform="translate(250.625,57.6875)"/>
<path d="M0 0 C0 33.99 0 67.98 0 103 C-16.0075052 103 -27.11750383 92.85072246 -38 82 C-42.86537888 76.64056499 -45.74457903 70.17187583 -46.1875 62.9375 C-46.125625 62.298125 -46.06375 61.65875 -46 61 C-46.9075 61.0825 -47.815 61.165 -48.75 61.25 C-52 61 -52 61 -54.25 59.375 C-57.6899132 54.70654638 -58.27644123 50.00397443 -58.25 44.3125 C-58.25515625 43.19488281 -58.2603125 42.07726562 -58.265625 40.92578125 C-58 38 -58 38 -56 35 C-51.18778226 34.53728676 -47.47970138 35.25182385 -43 37 C-43.12375 35.14375 -43.12375 35.14375 -43.25 33.25 C-43.22250202 24.51939037 -40.03008672 16.58777012 -34.7578125 9.71875 C-29.97159928 5.03889707 -25.11104796 3.14828442 -18.75 1.75 C-18.05003906 1.57726562 -17.35007813 1.40453125 -16.62890625 1.2265625 C-10.77016587 -0.11806644 -6.30189526 0 0 0 Z " fill="#F1CC8B" transform="translate(258,117)"/>
<path d="M0 0 C0.47308594 0.36351562 0.94617188 0.72703125 1.43359375 1.1015625 C17.43444493 13.31631767 17.43444493 13.31631767 37 15 C46.15738024 12.60053454 52.44183898 7.65972546 59 1 C61.46043429 3.36201691 63.50702374 5.61123799 65.3125 8.5 C67.98778975 12.37256448 70.86749338 13.82104197 75 16 C76.36424539 17.3016874 77.70404174 18.63031108 79 20 C63.95887212 29.683558 49.0315465 34.21626741 31.1875 34.3125 C30.32842041 34.31805908 29.46934082 34.32361816 28.58422852 34.3293457 C13.40582652 34.15873632 -0.75912782 29.1572282 -14 22 C-12.85528343 18.56585028 -12.06852705 18.14460739 -9.25 16.0625 C-4.03611368 11.71134307 -2.15043553 6.2962271 0 0 Z " fill="#D9B06F" transform="translate(225,204)"/>
<path d="M0 0 C2.46043429 2.36201691 4.50702374 4.61123799 6.3125 7.5 C8.98778975 11.37256448 11.86749338 12.82104197 16 15 C17.36424539 16.3016874 18.70404174 17.63031108 20 19 C5.48810328 28.34283616 -8.62266166 33 -26 33 C-26 27.06 -26 21.12 -26 15 C-23.56625 14.195625 -21.1325 13.39125 -18.625 12.5625 C-10.81644214 9.80555553 -5.6617552 6.12449481 0 0 Z " fill="#D0A55F" transform="translate(284,205)"/>
</svg>
